<svg version="1" xmlns="http://www.w3.org/2000/svg" width="933.333" height="933.333" viewBox="0 0 700.000000 700.000000"><path d="M2.1 2.6L0 5.3v689.4l2.1 2.7 2 2.6h691.8l2-2.6 2.1-2.7V5.3l-2.1-2.7-2-2.6H4.1l-2 2.6zM218 311c15.7 64.6 28.8 118.1 29.1 118.8.2.8 13.2-50.7 28.8-114.4 15.6-63.6 28.8-117.2 29.3-119.1l.9-3.3h91.8l1 3.7c.6 2.1 13.4 54.2 28.6 115.8 15.1 61.6 27.8 112.8 28.3 113.8.7 1.8 3.8-10.2 43-168.8l15.9-64 53.7-.3 53.8-.2-.7 2.7c-1 4.3-89.5 340.6-90.1 342.5-.5 1.7-4.3 1.8-60.5 1.8H411l-1-2.3c-.5-1.2-13.6-54.2-29.1-117.7-15.6-63.5-28.5-115.8-28.9-116.2-.3-.4-13.3 51.5-28.9 115.5-15.6 63.9-28.7 117.2-29.2 118.4l-.9 2.3h-59.9c-56.2 0-60-.1-60.5-1.8-.6-2-89.1-338.3-90.1-342.5l-.7-2.7 53.7.2 53.8.3L218 311z"/></svg>