<?xml version="1.0" ?><svg style="enable-background:new 0 0 48 48;" version="1.1" viewBox="0 0 48 48" xml:space="preserve" xmlns="http://www.w3.org/2000/svg" xmlns:xlink="http://www.w3.org/1999/xlink"><g id="Padding__x26__Artboard"/><g id="Icons"><g><path d="M28.2041,22.26605v1.0976h3.11401c0,0,0.07159,1.21698,0,1.21698s-3.11401,0-3.11401,0v1.19312    h3.47198l1.68225-1.75378l-1.61072-1.75391H28.2041z" style="fill:#303030;"/><polygon points="12.84833,24.43365 14.77209,24.43365 13.81024,22.14258   " style="fill:#303030;"/><path d="M36.73438,14.05737H11.26562c-1.32715,0-2.40674,1.07959-2.40674,2.40625v15.07227    c0,1.32715,1.07959,2.40674,2.40674,2.40674h25.46875c1.32715,0,2.40674-1.07959,2.40674-2.40674V16.46362    C39.14111,15.13696,38.06152,14.05737,36.73438,14.05737z M37.68933,26.93347h-1.70612l-1.742-1.89941l-1.77771,1.89941h-5.6673    v-5.86713h5.73889l1.73004,1.93939l1.78967-1.93939h1.68231l-2.58911,2.93353L37.68933,26.93347z M14.87189,21.06635    l2.42145,5.51703v-5.51703H19.646l1.82983,3.98993l1.74731-3.98993h2.27008v5.86102h-1.38959v-4.54022    c0,0-1.91241,4.52643-2.00873,4.54022c-0.09631,0.01367-1.33447,0-1.33447,0l-2.03619-4.58154v4.58765h-2.88922l-0.55042-1.25812    H12.2854l-0.48157,1.25812l-1.54089-0.0061l2.53149-5.86102H14.87189z" style="fill:#303030;"/></g></g></svg>