<?xml version="1.0" ?><!DOCTYPE svg  PUBLIC '-//W3C//DTD SVG 1.1//EN'  'http://www.w3.org/Graphics/SVG/1.1/DTD/svg11.dtd'><svg enable-background="new 0 0 64 64" height="64px" id="Layer_1" version="1.1" viewBox="0 0 64 64" width="64px" xml:space="preserve" xmlns="http://www.w3.org/2000/svg" xmlns:xlink="http://www.w3.org/1999/xlink"><g><g><g><g><path d="M21.7,58.2L21.7,58.2c0-0.2-0.2-0.4-0.5-0.4h-0.7v0.7h0.7C21.5,58.6,21.7,58.5,21.7,58.2z" fill="#004760"/></g><g><path d="M35.6,54.3L35.6,54.3c0-0.6-0.4-1-1-1H34v2.1h0.6C35.2,55.4,35.6,54.9,35.6,54.3z" fill="#004760"/></g><g><polygon fill="#004760" points="16.9,54.6 17.8,54.6 17.3,53.5     "/></g><g><path d="M28,53.3h-0.7v1H28c0.4,0,0.6-0.2,0.6-0.5v0C28.6,53.5,28.4,53.3,28,53.3z" fill="#004760"/></g><g><path d="M21.4,59.2h-0.9V60h0.9c0.3,0,0.5-0.1,0.5-0.4v0C21.9,59.4,21.7,59.2,21.4,59.2z" fill="#004760"/></g><g><path d="M46.5,53.3h-0.6v2.1h0.6c0.6,0,1-0.4,1-1v0C47.5,53.7,47.1,53.3,46.5,53.3z" fill="#004760"/></g><g><path d="M13,51.2v9c0,1.5,1.3,2.8,2.8,2.8h32.4c1.5,0,2.8-1.3,2.8-2.8v-9H13z M37.1,52.6h0.7V56h-0.7V52.6z       M33.3,52.6h1.3c1.1,0,1.8,0.7,1.8,1.7v0c0,1-0.7,1.7-1.8,1.7h-1.3V52.6z M18.3,56L18,55.3h-1.4L16.3,56h-0.8l1.5-3.4h0.7      l1.5,3.4H18.3z M19.3,54.3c0-1,0.7-1.8,1.8-1.8c0.6,0,1,0.2,1.3,0.5l-0.5,0.5c-0.3-0.2-0.5-0.4-0.9-0.4c-0.6,0-1,0.5-1,1.1v0      c0,0.6,0.4,1.1,1,1.1c0.4,0,0.6-0.2,0.9-0.4l0.5,0.5c-0.4,0.4-0.7,0.6-1.4,0.6C20,56.1,19.3,55.3,19.3,54.3L19.3,54.3z       M22.7,59.7c0,0.6-0.5,0.9-1.3,0.9h-1.6v-3.4h1.6c0.4,0,0.7,0.1,0.9,0.3c0.2,0.2,0.2,0.3,0.2,0.6v0c0,0.4-0.2,0.6-0.4,0.7      C22.4,59,22.7,59.2,22.7,59.7L22.7,59.7z M22.8,54.3c0-1,0.7-1.8,1.8-1.8c0.6,0,1,0.2,1.3,0.5l-0.5,0.5      c-0.3-0.2-0.5-0.4-0.9-0.4c-0.6,0-1,0.5-1,1.1v0c0,0.6,0.4,1.1,1,1.1c0.4,0,0.6-0.2,0.9-0.4l0.5,0.5c-0.4,0.4-0.7,0.6-1.4,0.6      C23.5,56.1,22.8,55.3,22.8,54.3L22.8,54.3z M26.2,59.1c0,1-0.6,1.5-1.5,1.5s-1.5-0.5-1.5-1.5v-1.9H24v1.9c0,0.6,0.3,0.8,0.7,0.8      c0.5,0,0.7-0.3,0.7-0.8v-2h0.7V59.1z M29.4,59.6c0,0.7-0.5,1.1-1.3,1.1c-0.5,0-1-0.2-1.4-0.5l0.4-0.5c0.3,0.3,0.6,0.4,1,0.4      c0.3,0,0.5-0.1,0.5-0.3v0c0-0.2-0.1-0.3-0.7-0.4c-0.7-0.2-1.1-0.4-1.1-1v0c0-0.6,0.5-1,1.2-1c0.5,0,0.9,0.2,1.3,0.4l-0.4,0.6      c-0.3-0.2-0.6-0.3-0.9-0.3c-0.3,0-0.4,0.1-0.4,0.3v0c0,0.2,0.1,0.3,0.7,0.4C29,58.8,29.4,59,29.4,59.6L29.4,59.6z M28.6,56      l-0.7-1.1h0h-0.6V56h-0.7v-3.4h1.6c0.4,0,0.8,0.1,1,0.3c0.2,0.2,0.3,0.5,0.3,0.8v0c0,0.5-0.3,0.9-0.7,1.1l0.8,1.2H28.6z       M30,52.6h2.6v0.7h-1.8V54h1.6v0.7h-1.6v0.7h1.8V56H30V52.6z M30.9,60.6h-0.8v-3.4h0.8V60.6z M34.7,60.6h-0.6l-1.7-2.2v2.2h-0.7      v-3.4h0.7l1.6,2.1v-2.1h0.7V60.6z M38.1,60.6h-2.6v-3.4h2.6v0.7h-1.8v0.7h1.6v0.7h-1.6V60h1.8V60.6z M41.3,59.6      c0,0.7-0.5,1.1-1.2,1.1c-0.5,0-1-0.2-1.4-0.5l0.4-0.5c0.3,0.3,0.6,0.4,1,0.4c0.3,0,0.5-0.1,0.5-0.3v0c0-0.2-0.1-0.3-0.7-0.4      c-0.7-0.2-1.1-0.4-1.1-1v0c0-0.6,0.5-1,1.2-1c0.5,0,0.9,0.2,1.3,0.4l-0.4,0.6c-0.3-0.2-0.6-0.3-0.9-0.3c-0.3,0-0.4,0.1-0.4,0.3      v0c0,0.2,0.1,0.3,0.7,0.4C40.9,58.8,41.3,59,41.3,59.6L41.3,59.6z M41.3,53.3h-1V56h-0.7v-2.7h-1v-0.7h2.8V53.3z M44.3,59.6      c0,0.7-0.5,1.1-1.2,1.1c-0.5,0-1-0.2-1.4-0.5l0.4-0.5c0.3,0.3,0.6,0.4,1,0.4c0.3,0,0.5-0.1,0.5-0.3v0c0-0.2-0.1-0.3-0.7-0.4      c-0.7-0.2-1.1-0.4-1.1-1v0c0-0.6,0.5-1,1.2-1c0.5,0,0.9,0.2,1.3,0.4l-0.4,0.6c-0.3-0.2-0.6-0.3-0.9-0.3c-0.3,0-0.4,0.1-0.4,0.3      v0c0,0.2,0.1,0.3,0.7,0.4C43.9,58.8,44.3,59,44.3,59.6L44.3,59.6z M44.5,56h-2.6v-3.4h2.6v0.7h-1.8V54h1.6v0.7h-1.6v0.7h1.9V56z       M48.3,54.3c0,1-0.7,1.7-1.8,1.7h-1.3v-3.4h1.3C47.5,52.6,48.3,53.4,48.3,54.3L48.3,54.3z" fill="#004760"/></g></g><g><g><g><polygon fill="#005E88" points="41.2,30.4 23.3,30.4 22.6,32.5 27.4,32.5 28.3,35.5 36.2,35.5 37.1,32.5 41.9,32.5      "/></g></g><g><g><g><g><path d="M26.2,18.3c-0.7,0.9-0.9,2-0.8,3.2c0.2,1.1,0.8,2.1,1.7,2.8l4.3,3.1c0.2,0.2,0.4,0.4,0.4,0.7         c0,0.3,0,0.6-0.2,0.8l0.6,0.5l2.3-3.1c0.5-0.7,0.8-1.6,0.8-2.5c0-0.2,0-0.5-0.1-0.7c-0.2-1.1-0.8-2.1-1.7-2.8l-4.3-3.1         c-0.2-0.2-0.4-0.4-0.4-0.7c0-0.1,0-0.1,0-0.2c0-0.2,0.1-0.4,0.2-0.6h0l-0.6-0.5L26.2,18.3z" fill="#0D769B"/></g></g></g><g><g><g><path d="M29.3,17.1c-0.2-0.2-0.4-0.4-0.4-0.7c0-0.1,0-0.1,0-0.2c0-0.2,0.1-0.4,0.2-0.6h0l-0.6-0.5l-2.3,3.1         c-0.7,0.9-0.9,2-0.8,3.2c0.2,1.1,0.8,2.1,1.7,2.8l4.3,3.1c0.2,0.2,0.4,0.4,0.4,0.7c0,0.3,0,0.6-0.2,0.8l0.6,0.5l2.3-3.1" fill="#005E88"/></g></g></g><g><g><g><path d="M28.8,5.8c-0.8,1.1-1.2,2.3-1.2,3.6c0,0.3,0,0.7,0.1,1c0.3,1.6,1.1,3,2.5,4l5.4,3.9         c0.7,0.5,1.2,1.3,1.3,2.1c0,0.2,0,0.4,0,0.5c0,0.7-0.2,1.4-0.6,1.9l0,0l0.5,0.4l4.3-5.9c1-1.3,1.4-3,1.1-4.6         c-0.3-1.6-1.1-3-2.5-4L33.2,4c-0.4-0.3-0.7-0.7-0.8-1.2c-0.1-0.5,0-1,0.3-1.4L32.2,1L28.8,5.8z" fill="#0D769B"/></g></g></g><g><g><g><path d="M33.2,4c-0.4-0.3-0.7-0.7-0.8-1.2c-0.1-0.5,0-1,0.3-1.4L32.2,1l-3.4,4.8c-0.8,1.1-1.2,2.3-1.2,3.6         c0,0.3,0,0.7,0.1,1c0.3,1.6,1.1,3,2.5,4l5.4,3.9c0.7,0.5,1.2,1.3,1.3,2.1c0,0.2,0,0.4,0,0.5c0,0.7-0.2,1.4-0.6,1.9l0,0         l0.5,0.4l4.3-5.9" fill="#005E88"/></g></g></g></g><g><g><path d="M31.8,29c0.5-0.7,0.8-1.5,0.8-2.4c0-0.2,0-0.5-0.1-0.7c-0.2-1.1-0.8-2.1-1.7-2.8L26.5,20       c-0.2-0.2-0.4-0.4-0.4-0.7c0-0.1,0-0.1,0-0.2c0-0.2,0.1-0.4,0.2-0.6h0l-0.1-0.1c-0.6,0.9-0.9,2-0.7,3.1       c0.2,1.1,0.8,2.1,1.7,2.8l4.3,3.1c0.2,0.2,0.4,0.4,0.4,0.7c0,0.3,0,0.6-0.2,0.8L31.8,29z" fill="#004760"/></g><g><path d="M39.3,15.6c-0.3-1.6-1.1-3-2.5-4l-6.5-4.7c-0.4-0.3-0.7-0.7-0.8-1.2c-0.1-0.5,0-1,0.3-1.4l0,0l-1.1,1.5       c-0.8,1.1-1.2,2.3-1.2,3.6c0,0.3,0,0.7,0.1,1c0.3,1.6,1.1,3,2.5,4l5.4,3.9c0.7,0.5,1.2,1.3,1.3,2.1c0,0.2,0,0.4,0,0.5       c0,0.7-0.2,1.4-0.6,1.9h0l1.9-2.7C39.2,18.9,39.6,17.3,39.3,15.6z" fill="#004760"/></g></g><g><g><g><path d="M17.8,37.3h4.9c1.2,0,2.2,0.3,2.8,0.9c0.5,0.5,0.7,1.1,0.7,1.8v0c0,1.2-0.6,1.9-1.4,2.3        c1.2,0.5,2,1.2,2,2.6v0c0,1.9-1.6,2.9-4,2.9h-5V37.3z M22.2,41.6c1,0,1.7-0.3,1.7-1.1v0c0-0.7-0.5-1.1-1.5-1.1H20v2.2H22.2z         M22.8,45.8c1,0,1.7-0.4,1.7-1.1v0c0-0.7-0.5-1.2-1.7-1.2H20v2.3H22.8z" fill="#004760"/></g></g><g><g><path d="M27.8,37.3h4.9c1.2,0,2.2,0.3,2.8,0.9c0.5,0.5,0.7,1.1,0.7,1.8v0c0,1.2-0.6,1.9-1.4,2.3        c1.2,0.5,2,1.2,2,2.6v0c0,1.9-1.6,2.9-4,2.9h-5V37.3z M32.2,41.6c1,0,1.7-0.3,1.7-1.1v0c0-0.7-0.5-1.1-1.5-1.1H30v2.2H32.2z         M32.8,45.8c1,0,1.7-0.4,1.7-1.1v0c0-0.7-0.5-1.2-1.7-1.2H30v2.3H32.8z" fill="#005E88"/></g></g><g><g><path d="M37.8,37.3h4.9c1.2,0,2.2,0.3,2.8,0.9c0.5,0.5,0.7,1.1,0.7,1.8v0c0,1.2-0.6,1.9-1.4,2.3        c1.2,0.5,2,1.2,2,2.6v0c0,1.9-1.6,2.9-4,2.9h-5V37.3z M42.2,41.6c1,0,1.7-0.3,1.7-1.1v0c0-0.7-0.5-1.1-1.5-1.1h-2.3v2.2H42.2z         M42.8,45.8c1,0,1.6-0.4,1.6-1.1v0c0-0.7-0.5-1.2-1.7-1.2h-2.7v2.3H42.8z" fill="#0D769B"/></g></g></g></g></g><g><polygon fill="#004760" points="22.9,31.5 22.6,32.5 27.4,32.5 28.3,35.5 36.2,35.5 37.1,32.5 41.9,32.5 41.6,31.5   "/></g></g></svg>