<?xml version="1.0" ?><svg style="enable-background:new 0 0 48 48;" version="1.1" viewBox="0 0 48 48" xml:space="preserve" xmlns="http://www.w3.org/2000/svg" xmlns:xlink="http://www.w3.org/1999/xlink"><g id="Padding__x26__Artboard"/><g id="Icons"><g><path d="M12.70612,22.30969c0,0.85608,0,1.70428,0,2.56189c0.1438,0,0.27948,0.0072,0.41418-0.00146    c0.29968-0.01941,0.5824-0.09064,0.81561-0.29755c0.5354-0.47516,0.56567-1.37744,0.06537-1.89337    C13.6402,22.3067,13.17981,22.29871,12.70612,22.30969z" style="fill:#303030;"/><path d="M34.94263,22.35181c-0.21564-0.11011-0.44769-0.09509-0.68231-0.08691    c0,0.39282,0,0.77728,0,1.1723c0.23846,0.00018,0.47412,0.01532,0.68951-0.104c0.19836-0.10999,0.26868-0.29071,0.26617-0.50757    C35.21362,22.61658,35.13434,22.44958,34.94263,22.35181z" style="fill:#303030;"/><path d="M36.73413,14.05737H11.26538c-1.32666,0-2.40625,1.07959-2.40625,2.40674v15.07227    c0,1.32666,1.07959,2.40625,2.40625,2.40625h25.46875c1.32715,0,2.40674-1.07959,2.40674-2.40625V16.46411    C39.14087,15.13696,38.06128,14.05737,36.73413,14.05737z M11.94171,25.53931c0-1.30353,0-2.59259,0-3.88568    c0.01508-0.00372,0.02887-0.01025,0.04272-0.01013c0.4306,0.00311,0.86267-0.01422,1.29156,0.01514    c0.68732,0.047,1.26361,0.32635,1.61322,0.94507c0.68848,1.21838-0.06281,2.74158-1.42413,2.90289    c-0.34229,0.04041-0.69116,0.0246-1.03717,0.0321C12.26892,25.54211,12.1098,25.53931,11.94171,25.53931z M15.50018,25.53442    c0-1.29559,0-2.58624,0-3.88434c0.24933,0,0.49683,0,0.75043,0c0,1.29303,0,2.58374,0,3.88434    C15.9978,25.53442,15.75214,25.53442,15.50018,25.53442z M18.43475,24.28931c-0.03125-0.1413-0.11322-0.24902-0.23944-0.31219    c-0.14221-0.07111-0.2923-0.12659-0.43903-0.18872c-0.15778-0.06671-0.31946-0.12561-0.47266-0.20166    c-0.4906-0.24384-0.64093-0.66943-0.5011-1.20013c0.11688-0.44379,0.52228-0.75452,1.0235-0.79889    c0.47217-0.04199,0.89246,0.09399,1.25818,0.39661c0.00909,0.00739,0.01617,0.01727,0.0307,0.03296    c-0.13416,0.17523-0.26349,0.34406-0.396,0.51691c-0.14551-0.15509-0.29919-0.28009-0.508-0.3067    c-0.20898-0.02649-0.4046,0.00763-0.55994,0.16302c-0.16748,0.1676-0.14795,0.41779,0.05243,0.54211    c0.13434,0.08319,0.28638,0.138,0.43042,0.20551c0.22009,0.10345,0.44769,0.19366,0.65857,0.3136    c0.30481,0.17328,0.4422,0.45367,0.45612,0.80157c0.01831,0.46039-0.12103,0.84998-0.50269,1.1283    c-0.28802,0.21002-0.61908,0.26874-0.96863,0.24823c-0.53198-0.03113-0.92267-0.29541-1.20538-0.71899    c0.15668-0.1676,0.30994-0.33142,0.45721-0.48895c0.09528,0.10992,0.1709,0.2207,0.26886,0.30542    c0.21881,0.18921,0.479,0.25098,0.76001,0.18121C18.3233,24.83771,18.49475,24.56073,18.43475,24.28931z M20.74622,24.66608    c0.47742,0.36774,1.14307,0.34894,1.59882-0.04535c0.03827-0.03314,0.07629-0.06665,0.13177-0.11493    c0,0.05823,0,0.09839,0,0.13879c-0.00006,0.229-0.00128,0.45801,0.00098,0.68713c0.00055,0.04865-0.01459,0.07428-0.05988,0.09595    c-0.92981,0.44373-2.06927,0.14111-2.62268-0.71417c-0.76392-1.1806-0.15948-2.79449,1.3064-3.1109    c0.45319-0.0976,0.89301-0.04901,1.30951,0.16321c0.02698,0.01379,0.06226,0.047,0.06268,0.07178    c0.00439,0.27643,0.00281,0.5531,0.00281,0.84003c-0.12231-0.09161-0.22681-0.1839-0.34412-0.25531    c-0.45251-0.27551-1.03387-0.21112-1.44208,0.15222C20.08112,23.117,20.10944,24.17572,20.74622,24.66608z M22.91492,23.57251    c0.00598-1.03009,0.85272-1.84198,1.91882-1.84863c1.086-0.00659,1.93329,0.84674,1.91595,1.87061    c0.0174,1.03632-0.83557,1.88245-1.91681,1.8808C23.74451,25.47369,22.90875,24.66339,22.91492,23.57251z M26.7641,21.64301    c0.26624,0,0.5246-0.0022,0.7829,0.00348c0.02411,0.00049,0.0567,0.0462,0.06934,0.07739    c0.26849,0.67059,0.53448,1.34241,0.80127,2.01379c0.06549,0.16492,0.13171,0.32965,0.20392,0.51025    c0.01837-0.04102,0.0321-0.06891,0.0437-0.09753c0.32581-0.81,0.65192-1.61981,0.97589-2.4303    c0.02179-0.05438,0.04602-0.08032,0.10992-0.0791c0.24377,0.00421,0.48767,0.00171,0.74579,0.00171    c-0.01471,0.0387-0.02509,0.06848-0.03729,0.09747c-0.53632,1.27344-1.07324,2.54645-1.60754,3.82056    c-0.02539,0.06055-0.05627,0.08136-0.11951,0.0777c-0.0871-0.00513-0.17517,0.00336-0.2619-0.00372    c-0.0307-0.0025-0.07507-0.02728-0.08575-0.05328c-0.54034-1.29779-1.07751-2.59692-1.61481-3.896    C26.76678,21.67761,26.7674,21.66809,26.7641,21.64301z M32.93372,23.16528c0,0.22491,0,0.43939,0,0.66284    c-0.44208,0-0.88043,0-1.32483,0c0,0.35089,0,0.69287,0,1.04596c0.46045,0,0.91925,0,1.38184,0c0,0.224,0,0.43683,0,0.65741    c-0.7149,0-1.42633,0-2.14423,0c0-1.29169,0-2.5824,0-3.88428c0.71533,0,1.4248,0,2.14154,0c0,0.21918,0,0.43408,0,0.65698    c-0.45764,0-0.91431,0-1.37823,0c0,0.28882,0,0.5697,0,0.86108C32.05054,23.16528,32.48871,23.16528,32.93372,23.16528z     M35.82812,25.53931c-0.1145,0-0.22913-0.00378-0.34332,0.0014c-0.06262,0.00287-0.09711-0.02081-0.13068-0.07129    c-0.31683-0.4762-0.63672-0.95032-0.95441-1.42603c-0.03241-0.04852-0.06262-0.0899-0.1402-0.0589c0,0.51038,0,1.02649,0,1.54858    c-0.25922,0-0.50732,0-0.76062,0c0-1.29419,0-2.58521,0-3.88226c0.01453-0.00354,0.02301-0.00732,0.03149-0.0072    c0.4306,0.00299,0.86151-0.0011,1.29169,0.01361c0.15082,0.00519,0.30493,0.0415,0.4494,0.08875    c0.49042,0.16052,0.76294,0.58215,0.73041,1.09851c-0.01849,0.29474-0.09314,0.56299-0.31458,0.77429    c-0.13654,0.13025-0.30042,0.20825-0.47919,0.2597c-0.02594,0.00745-0.05194,0.01422-0.08923,0.02441    c0.40643,0.5437,0.80841,1.0816,1.22308,1.63641C36.15662,25.53931,35.99231,25.53931,35.82812,25.53931z" style="fill:#303030;"/></g></g></svg>