<?xml version="1.0" ?><!DOCTYPE svg  PUBLIC '-//W3C//DTD SVG 1.1//EN'  'http://www.w3.org/Graphics/SVG/1.1/DTD/svg11.dtd'><svg height="32px" id="Layer_1" style="enable-background:new 0 0 32 32;" version="1.1" viewBox="0 0 32 32" width="32px" xml:space="preserve" xmlns="http://www.w3.org/2000/svg" xmlns:xlink="http://www.w3.org/1999/xlink"><path d="M28,8H18V6c0-1.1-0.9-2-2-2H6V2c0-1.104-0.896-2-2-2S2,0.896,2,2v28c0,1.104,0.896,2,2,2s2-0.896,2-2V20h4v2  c0,1.1,0.9,2,2,2h16c1.1,0,2-0.9,2-2V10C30,8.9,29.1,8,28,8z M6,8h8v8H6V8z M26,20h-8v-8h8V20z"/></svg>