<?xml version="1.0" encoding="UTF-8" standalone="no"?>
<!-- Generator: Adobe Illustrator 21.0.2, SVG Export Plug-In . SVG Version: 6.00 Build 0)  -->

<svg
   xmlns:dc="http://purl.org/dc/elements/1.1/"
   xmlns:cc="http://creativecommons.org/ns#"
   xmlns:rdf="http://www.w3.org/1999/02/22-rdf-syntax-ns#"
   xmlns:svg="http://www.w3.org/2000/svg"
   xmlns="http://www.w3.org/2000/svg"
   xmlns:sodipodi="http://sodipodi.sourceforge.net/DTD/sodipodi-0.dtd"
   xmlns:inkscape="http://www.inkscape.org/namespaces/inkscape"
   version="1.1"
   id="Layer_1"
   x="0px"
   y="0px"
   width="270px"
   height="32px"
   viewBox="0 0 270 32"
   style="enable-background:new 0 0 270 32;"
   xml:space="preserve"
   inkscape:version="0.91 r13725"
   sodipodi:docname="footer-payment.svg"><metadata
     id="metadata47"><rdf:RDF><cc:Work
         rdf:about=""><dc:format>image/svg+xml</dc:format><dc:type
           rdf:resource="http://purl.org/dc/dcmitype/StillImage" /></cc:Work></rdf:RDF></metadata><defs
     id="defs45" /><sodipodi:namedview
     pagecolor="#ffffff"
     bordercolor="#666666"
     borderopacity="1"
     objecttolerance="10"
     gridtolerance="10"
     guidetolerance="10"
     inkscape:pageopacity="0"
     inkscape:pageshadow="2"
     inkscape:window-width="1544"
     inkscape:window-height="979"
     id="namedview43"
     showgrid="false"
     inkscape:zoom="1.6970563"
     inkscape:cx="126.98401"
     inkscape:cy="16"
     inkscape:window-x="0"
     inkscape:window-y="0"
     inkscape:window-maximized="0"
     inkscape:current-layer="Layer_1" /><style
     type="text/css"
     id="style3">
	.st0{fill:url(#SVGID_1_);}
	.st1{fill:#F99F1D;}
	.st2{fill:#ED2026;}
	.st3{fill:#F26A21;}
	.st4{fill:#009BDE;}
	.st5{fill:#002F87;}
	.st6{fill:#022169;}
	.st7{fill:#0078A9;}
</style><linearGradient
     id="SVGID_1_"
     gradientUnits="userSpaceOnUse"
     x1="0"
     y1="11.35"
     x2="48"
     y2="11.35"
     gradientTransform="matrix(1 0 0 1 0 4)"><stop
       offset="0"
       style="stop-color:#26225B"
       id="stop6" /><stop
       offset="1"
       style="stop-color:#0751A0"
       id="stop8" /></linearGradient><path
     class="st0"
     d="M18.2,7.8l-6.3,15h-4l-3.1-12c-0.2-0.7-0.4-1-0.9-1.3C2.9,9,1.4,8.5,0,8.2l0.1-0.4h6.6c0.8,0,1.6,0.6,1.8,1.5  l1.6,8.7l4-10.2C14.2,7.8,18.2,7.8,18.2,7.8z M34.3,17.9c0-4-5.5-4.2-5.4-5.9c0-0.5,0.5-1.1,1.6-1.3c0.6-0.1,2.1-0.1,3.8,0.7L35,8.2  c-0.9-0.3-2.1-0.7-3.6-0.7c-3.8,0-6.5,2-6.6,5c0,2.2,1.9,3.4,3.4,4.1s2,1.2,2,1.9c0,1-1.2,1.4-2.3,1.5c-1.9,0-3.1-0.5-4-0.9  l-0.7,3.3c0.9,0.4,2.6,0.8,4.3,0.8C31.6,23,34.3,21,34.3,17.9 M44.4,22.8H48l-3.1-15h-3.3c-0.7,0-1.4,0.4-1.7,1.1l-5.8,13.9h4.1  l0.8-2.2h5L44.4,22.8L44.4,22.8z M40.1,17.4l2-5.6l1.2,5.6H40.1L40.1,17.4z M23.8,7.8l-3.2,15h-3.9l3.2-15  C19.9,7.8,23.8,7.8,23.8,7.8z"
     id="path10"
     inkscape:export-xdpi="153.17845"
     inkscape:export-ydpi="153.17845" /><g
     id="MaterCard"
     transform="translate(62.375,0.54166667)"
     inkscape:export-xdpi="153.17845"
     inkscape:export-ydpi="153.17845"><path
       d="m 80.83,27.83 c -0.11,-0.11 -0.25,-0.21 -0.41,-0.27 -0.16,-0.06 -0.33,-0.09 -0.52,-0.09 -0.09,0 -0.21,0.02 -0.32,0.03 -0.11,0.02 -0.21,0.05 -0.32,0.09 -0.09,0.05 -0.21,0.11 -0.28,0.17 -0.09,0.08 -0.17,0.17 -0.24,0.28 -0.11,-0.19 -0.25,-0.33 -0.44,-0.43 -0.19,-0.11 -0.41,-0.16 -0.65,-0.16 -0.08,0 -0.16,0 -0.25,0.02 -0.09,0.02 -0.17,0.05 -0.25,0.08 -0.08,0.03 -0.17,0.08 -0.25,0.14 -0.08,0.06 -0.14,0.14 -0.21,0.24 l 0,-0.39 -0.68,0 0,3.27 0.69,0 0,-1.81 c 0,-0.14 0.02,-0.27 0.06,-0.36 0.05,-0.11 0.11,-0.21 0.17,-0.27 0.08,-0.08 0.16,-0.13 0.25,-0.16 0.09,-0.03 0.21,-0.06 0.32,-0.06 0.24,0 0.41,0.08 0.54,0.22 0.13,0.14 0.19,0.36 0.19,0.63 l 0,1.81 0.69,0 0,-1.81 c 0,-0.14 0.02,-0.27 0.06,-0.36 0.05,-0.11 0.11,-0.21 0.17,-0.27 0.08,-0.08 0.16,-0.13 0.25,-0.16 0.09,-0.03 0.21,-0.06 0.32,-0.06 0.24,0 0.41,0.08 0.54,0.22 0.13,0.14 0.19,0.36 0.19,0.63 l 0,1.81 0.69,0 0,-2.05 c 0,-0.19 -0.03,-0.36 -0.09,-0.52 -0.01,-0.16 -0.09,-0.28 -0.22,-0.41 z m 3.66,0.13 c -0.11,-0.14 -0.25,-0.27 -0.43,-0.35 -0.17,-0.09 -0.36,-0.13 -0.6,-0.13 -0.24,0 -0.44,0.05 -0.65,0.13 -0.21,0.08 -0.36,0.21 -0.52,0.36 -0.14,0.16 -0.27,0.33 -0.35,0.54 -0.08,0.21 -0.13,0.44 -0.13,0.69 0,0.25 0.05,0.47 0.13,0.69 0.08,0.21 0.21,0.39 0.35,0.54 0.14,0.16 0.32,0.27 0.52,0.36 0.21,0.08 0.41,0.13 0.65,0.13 0.24,0 0.44,-0.05 0.6,-0.13 0.17,-0.08 0.32,-0.21 0.43,-0.35 l 0,0.39 0.71,0 0,-3.27 -0.71,0 0,0.4 0,0 z m -0.03,1.64 c -0.05,0.13 -0.11,0.24 -0.21,0.33 -0.08,0.09 -0.19,0.17 -0.32,0.22 -0.13,0.05 -0.25,0.08 -0.39,0.08 -0.16,0 -0.3,-0.03 -0.41,-0.08 -0.13,-0.06 -0.22,-0.13 -0.32,-0.22 -0.08,-0.09 -0.14,-0.21 -0.19,-0.33 -0.05,-0.12 -0.06,-0.27 -0.06,-0.41 0,-0.14 0.02,-0.28 0.06,-0.41 0.04,-0.13 0.11,-0.24 0.19,-0.33 0.08,-0.09 0.19,-0.17 0.32,-0.22 0.13,-0.06 0.25,-0.08 0.41,-0.08 0.14,0 0.28,0.03 0.39,0.08 0.13,0.05 0.22,0.13 0.32,0.22 0.08,0.09 0.16,0.21 0.21,0.33 0.05,0.12 0.08,0.27 0.08,0.41 0,0.14 -0.03,0.28 -0.08,0.41 z m 4.01,-0.41 C 88.26,29.03 88,28.94 87.63,28.87 L 87.3,28.82 C 87.22,28.8 87.16,28.79 87.09,28.79 87.03,28.77 86.96,28.76 86.92,28.73 86.87,28.7 86.84,28.67 86.81,28.64 86.78,28.61 86.76,28.56 86.76,28.5 c 0,-0.11 0.05,-0.21 0.16,-0.28 0.11,-0.08 0.25,-0.11 0.46,-0.11 0.09,0 0.21,0.02 0.3,0.03 0.09,0.02 0.19,0.05 0.28,0.06 0.09,0.03 0.17,0.06 0.24,0.09 0.08,0.03 0.13,0.06 0.19,0.09 l 0.3,-0.55 c -0.17,-0.11 -0.36,-0.19 -0.6,-0.25 -0.22,-0.06 -0.47,-0.09 -0.73,-0.09 -0.21,0 -0.39,0.03 -0.57,0.08 -0.17,0.05 -0.3,0.11 -0.43,0.21 -0.11,0.09 -0.21,0.21 -0.27,0.33 -0.06,0.12 -0.09,0.27 -0.09,0.44 0,0.27 0.09,0.47 0.28,0.63 0.19,0.16 0.46,0.27 0.82,0.32 l 0.35,0.05 c 0.19,0.03 0.33,0.08 0.43,0.13 0.09,0.06 0.14,0.14 0.14,0.24 0,0.13 -0.06,0.22 -0.19,0.28 -0.13,0.08 -0.32,0.11 -0.55,0.11 -0.13,0 -0.25,-0.02 -0.36,-0.03 -0.11,-0.02 -0.21,-0.05 -0.28,-0.08 -0.09,-0.03 -0.17,-0.06 -0.24,-0.11 -0.07,-0.05 -0.13,-0.08 -0.19,-0.13 l -0.33,0.54 c 0.11,0.09 0.24,0.16 0.38,0.22 0.13,0.05 0.25,0.09 0.38,0.13 0.13,0.03 0.24,0.05 0.35,0.06 0.11,0.02 0.21,0.02 0.3,0.02 0.24,0 0.44,-0.03 0.63,-0.08 0.19,-0.05 0.35,-0.13 0.47,-0.22 0.13,-0.09 0.22,-0.21 0.28,-0.33 0.06,-0.13 0.09,-0.27 0.09,-0.43 0.01,-0.32 -0.09,-0.52 -0.29,-0.68 l 0,0 z m 6.67,-1.25 c -0.14,-0.16 -0.3,-0.27 -0.49,-0.35 -0.19,-0.08 -0.39,-0.13 -0.63,-0.13 -0.24,0 -0.46,0.05 -0.66,0.13 -0.21,0.08 -0.36,0.21 -0.52,0.35 -0.14,0.16 -0.25,0.33 -0.33,0.54 -0.08,0.21 -0.13,0.44 -0.13,0.69 0,0.25 0.05,0.49 0.13,0.71 0.08,0.21 0.19,0.39 0.35,0.54 0.14,0.16 0.33,0.27 0.52,0.35 0.21,0.08 0.43,0.13 0.68,0.13 0.25,0 0.49,-0.03 0.71,-0.09 0.22,-0.06 0.44,-0.19 0.63,-0.36 l -0.35,-0.5 c -0.14,0.11 -0.28,0.19 -0.46,0.25 -0.16,0.06 -0.33,0.09 -0.49,0.09 -0.11,0 -0.22,-0.02 -0.33,-0.05 -0.11,-0.03 -0.21,-0.08 -0.28,-0.14 -0.07,-0.06 -0.16,-0.16 -0.22,-0.25 -0.06,-0.11 -0.11,-0.24 -0.13,-0.38 l 2.41,0 c 0,-0.05 0.02,-0.08 0.02,-0.13 l 0,-0.14 c 0,-0.25 -0.03,-0.49 -0.11,-0.69 -0.08,-0.24 -0.18,-0.41 -0.32,-0.57 l 0,0 z m -1.99,0.96 c 0.02,-0.11 0.05,-0.22 0.09,-0.33 0.05,-0.09 0.11,-0.19 0.17,-0.25 0.08,-0.08 0.16,-0.13 0.25,-0.16 0.09,-0.03 0.21,-0.06 0.33,-0.06 0.22,0 0.41,0.06 0.55,0.21 0.14,0.14 0.24,0.33 0.27,0.6 l -1.66,0 0,-0.01 z m 11.46,-0.94 c -0.11,-0.14 -0.25,-0.27 -0.43,-0.35 -0.17,-0.09 -0.36,-0.13 -0.6,-0.13 -0.24,0 -0.44,0.05 -0.65,0.13 -0.21,0.08 -0.36,0.21 -0.52,0.36 -0.14,0.16 -0.27,0.33 -0.35,0.54 -0.08,0.21 -0.13,0.44 -0.13,0.69 0,0.25 0.05,0.47 0.13,0.69 0.08,0.21 0.21,0.39 0.35,0.54 0.14,0.16 0.32,0.27 0.52,0.36 0.21,0.08 0.41,0.13 0.65,0.13 0.24,0 0.44,-0.05 0.6,-0.13 0.16,-0.08 0.32,-0.21 0.43,-0.35 l 0,0.39 0.71,0 0,-3.27 -0.71,0 0,0.4 0,0 z m -0.03,1.64 c -0.05,0.13 -0.11,0.24 -0.21,0.33 -0.08,0.09 -0.19,0.17 -0.32,0.22 -0.13,0.05 -0.25,0.08 -0.39,0.08 -0.16,0 -0.3,-0.03 -0.41,-0.08 -0.11,-0.05 -0.22,-0.13 -0.32,-0.22 -0.08,-0.09 -0.14,-0.21 -0.19,-0.33 -0.05,-0.12 -0.06,-0.27 -0.06,-0.41 0,-0.14 0.02,-0.28 0.06,-0.41 0.04,-0.13 0.11,-0.24 0.19,-0.33 0.08,-0.09 0.19,-0.17 0.32,-0.22 0.13,-0.06 0.25,-0.08 0.41,-0.08 0.14,0 0.28,0.03 0.39,0.08 0.13,0.05 0.22,0.13 0.32,0.22 0.08,0.09 0.16,0.21 0.21,0.33 0.05,0.12 0.08,0.27 0.08,0.41 0,0.14 -0.04,0.28 -0.08,0.41 z m -13.05,0.57 c -0.11,0.05 -0.22,0.06 -0.33,0.06 -0.08,0 -0.14,-0.02 -0.21,-0.03 -0.06,-0.02 -0.11,-0.06 -0.16,-0.11 -0.05,-0.05 -0.08,-0.11 -0.11,-0.19 -0.03,-0.08 -0.05,-0.17 -0.05,-0.28 l 0,-1.42 1.14,0 0,-0.65 -1.14,0 0,-0.99 -0.71,0 0,0.99 -0.66,0 0,0.65 0.65,0 0,1.44 c 0,0.43 0.11,0.76 0.32,0.96 0.21,0.21 0.49,0.32 0.87,0.32 0.21,0 0.39,-0.03 0.55,-0.09 0.11,-0.05 0.21,-0.09 0.3,-0.14 l -0.24,-0.6 c -0.08,0.01 -0.14,0.04 -0.22,0.08 l 0,0 z m 6.42,-2.7 c -0.21,0 -0.38,0.03 -0.54,0.11 -0.16,0.08 -0.3,0.25 -0.41,0.41 l 0,-0.43 -0.65,0 0,3.27 0.65,0 0,-1.8 c 0,-0.14 0.02,-0.27 0.06,-0.38 0.03,-0.11 0.09,-0.21 0.16,-0.27 0.06,-0.08 0.16,-0.13 0.25,-0.17 0.09,-0.03 0.21,-0.06 0.32,-0.06 0.08,0 0.17,0.02 0.28,0.03 0.05,0.02 0.09,0.02 0.14,0.03 l 0.21,-0.68 -0.17,-0.05 c -0.08,0 -0.19,-0.01 -0.3,-0.01 z m 9.91,0 c -0.21,0 -0.38,0.03 -0.54,0.11 -0.16,0.08 -0.3,0.25 -0.41,0.41 l 0,-0.43 -0.65,0 0,3.27 0.65,0 0,-1.8 c 0,-0.14 0.02,-0.27 0.06,-0.38 0.03,-0.11 0.09,-0.21 0.16,-0.27 0.06,-0.08 0.16,-0.13 0.25,-0.17 0.09,-0.03 0.21,-0.06 0.32,-0.06 0.08,0 0.17,0.02 0.28,0.03 0.05,0.02 0.09,0.02 0.14,0.03 l 0.21,-0.68 -0.17,-0.05 c -0.1,0 -0.19,-0.01 -0.3,-0.01 z m 3.33,-1.23 0,1.72 c -0.11,-0.14 -0.25,-0.27 -0.43,-0.35 -0.17,-0.09 -0.36,-0.13 -0.6,-0.13 -0.24,0 -0.44,0.05 -0.65,0.13 -0.21,0.08 -0.36,0.21 -0.52,0.36 -0.14,0.16 -0.27,0.33 -0.35,0.54 -0.08,0.21 -0.13,0.44 -0.13,0.69 0,0.25 0.05,0.47 0.13,0.69 0.08,0.21 0.21,0.39 0.35,0.54 0.14,0.16 0.32,0.27 0.52,0.36 0.21,0.08 0.41,0.13 0.65,0.13 0.24,0 0.44,-0.05 0.6,-0.13 0.17,-0.08 0.32,-0.21 0.43,-0.35 l 0,0.39 0.71,0 0,-4.59 -0.71,0 0,0 z m -0.03,3.36 c -0.05,0.13 -0.11,0.24 -0.21,0.33 -0.08,0.09 -0.19,0.17 -0.32,0.22 -0.13,0.05 -0.25,0.08 -0.39,0.08 -0.16,0 -0.3,-0.03 -0.41,-0.08 -0.13,-0.06 -0.22,-0.13 -0.32,-0.22 -0.08,-0.09 -0.14,-0.21 -0.19,-0.33 -0.05,-0.12 -0.06,-0.27 -0.06,-0.41 0,-0.14 0.02,-0.28 0.06,-0.41 0.05,-0.13 0.11,-0.24 0.19,-0.33 0.08,-0.09 0.19,-0.17 0.32,-0.22 0.13,-0.06 0.25,-0.08 0.41,-0.08 0.14,0 0.28,0.03 0.39,0.08 0.13,0.05 0.22,0.13 0.32,0.22 0.08,0.09 0.16,0.21 0.21,0.33 0.05,0.12 0.08,0.27 0.08,0.41 -0.01,0.14 -0.04,0.28 -0.08,0.41 z M 99.65,28.43 c 0.09,-0.09 0.21,-0.16 0.33,-0.22 0.13,-0.05 0.25,-0.08 0.41,-0.08 0.16,0 0.32,0.03 0.44,0.08 0.13,0.05 0.25,0.11 0.35,0.21 l 0.35,-0.57 c -0.13,-0.11 -0.27,-0.19 -0.44,-0.25 -0.22,-0.09 -0.44,-0.13 -0.69,-0.13 -0.25,0 -0.49,0.05 -0.69,0.13 -0.22,0.09 -0.39,0.21 -0.55,0.36 -0.16,0.16 -0.28,0.33 -0.36,0.54 -0.09,0.21 -0.13,0.44 -0.13,0.68 0,0.25 0.05,0.47 0.13,0.68 0.09,0.21 0.21,0.39 0.36,0.54 0.16,0.16 0.35,0.27 0.55,0.36 0.22,0.09 0.44,0.13 0.69,0.13 0.25,0 0.49,-0.05 0.69,-0.13 0.16,-0.06 0.3,-0.14 0.44,-0.25 l -0.35,-0.57 c -0.09,0.09 -0.21,0.16 -0.35,0.21 -0.14,0.05 -0.28,0.08 -0.44,0.08 -0.14,0 -0.28,-0.03 -0.41,-0.08 -0.13,-0.05 -0.24,-0.13 -0.33,-0.22 -0.09,-0.09 -0.16,-0.21 -0.22,-0.33 -0.05,-0.13 -0.08,-0.27 -0.08,-0.43 0,-0.16 0.03,-0.3 0.08,-0.43 0.07,-0.1 0.14,-0.21 0.22,-0.31 z m 13.75,1.91 c 0.05,0 0.09,0.02 0.13,0.03 0.05,0.02 0.08,0.05 0.11,0.08 0.03,0.03 0.05,0.06 0.08,0.11 0.02,0.05 0.03,0.08 0.03,0.13 0,0.05 -0.02,0.09 -0.03,0.13 -0.02,0.05 -0.05,0.08 -0.08,0.11 -0.03,0.03 -0.06,0.05 -0.11,0.08 -0.05,0.02 -0.08,0.03 -0.13,0.03 -0.05,0 -0.09,-0.02 -0.14,-0.03 -0.05,-0.02 -0.08,-0.05 -0.11,-0.08 -0.03,-0.03 -0.05,-0.06 -0.08,-0.11 -0.02,-0.05 -0.03,-0.08 -0.03,-0.13 0,-0.05 0.02,-0.09 0.03,-0.13 0.02,-0.05 0.05,-0.08 0.08,-0.11 0.03,-0.03 0.06,-0.05 0.11,-0.08 0.04,-0.01 0.09,-0.03 0.14,-0.03 z m 0,0.58 c 0.03,0 0.06,0 0.09,-0.02 0.03,-0.02 0.05,-0.03 0.08,-0.05 0.02,-0.02 0.03,-0.05 0.05,-0.08 0.02,-0.03 0.02,-0.06 0.02,-0.09 0,-0.03 0,-0.06 -0.02,-0.09 -0.02,-0.03 -0.03,-0.05 -0.05,-0.08 -0.02,-0.02 -0.05,-0.03 -0.08,-0.05 -0.03,-0.02 -0.06,-0.02 -0.09,-0.02 -0.03,0 -0.06,0 -0.09,0.02 -0.03,0.02 -0.05,0.03 -0.08,0.05 -0.02,0.02 -0.03,0.05 -0.05,0.08 -0.02,0.03 -0.02,0.06 -0.02,0.09 0,0.03 0,0.06 0.02,0.09 0.02,0.03 0.03,0.05 0.05,0.08 0.02,0.02 0.05,0.03 0.08,0.05 0.02,0.01 0.05,0.02 0.09,0.02 z m 0.01,-0.39 c 0.05,0 0.08,0.02 0.09,0.03 0.02,0.02 0.03,0.05 0.03,0.08 0,0.03 0,0.05 -0.02,0.06 -0.02,0.02 -0.03,0.03 -0.06,0.03 l 0.09,0.11 -0.11,0 -0.08,-0.11 -0.02,0 0,0.11 -0.08,0 0,-0.3 0.16,-0.01 0,0 z m -0.06,0.08 0,0.05 0.09,0 0.02,-0.02 c 0,-0.02 0,-0.02 -0.02,-0.02 l -0.03,0 -0.06,-0.01 0,0 z"
       id="path13"
       inkscape:connector-curvature="0" /><path
       class="st1"
       d="m 101.56,0 c -2.89,0 -5.54,0.99 -7.64,2.65 2.84,2.26 4.67,5.73 4.67,9.64 0,3.91 -1.83,7.38 -4.67,9.64 2.1,1.66 4.75,2.65 7.64,2.65 6.8,0 12.31,-5.51 12.31,-12.31 C 113.87,5.47 108.35,0 101.56,0 Z"
       id="path15"
       inkscape:connector-curvature="0"
       style="fill:#f99f1d" /><path
       class="st1"
       d="m 93.93,2.65 c 3.12,2.26 5.13,5.74 5.13,9.67 0,3.91 -2,7.42 -5.13,9.67 l 0,-19.34 z"
       id="path17"
       inkscape:connector-curvature="0"
       style="fill:#f99f1d" /><path
       class="st2"
       d="M 89.26,12.31 C 89.26,8.4 91.09,4.93 93.93,2.67 91.83,0.99 89.18,0 86.31,0 79.51,0 74,5.51 74,12.31 c 0,6.8 5.51,12.31 12.31,12.31 2.89,0 5.54,-0.99 7.64,-2.65 -2.86,-2.28 -4.69,-5.77 -4.69,-9.66 z"
       id="path19"
       inkscape:connector-curvature="0"
       style="fill:#ed2026" /><path
       class="st2"
       d="m 93.99,2.63 c -3.12,2.26 -5.13,5.74 -5.13,9.67 0,3.91 2,7.42 5.13,9.67 l 0,-19.34 z"
       id="path21"
       inkscape:connector-curvature="0"
       style="fill:#ed2026" /><path
       class="st3"
       d="m 89.26,12.31 c 0,3.91 1.83,7.38 4.67,9.64 2.84,-2.26 4.67,-5.73 4.67,-9.64 0,-3.91 -1.83,-7.38 -4.67,-9.64 -2.84,2.24 -4.67,5.72 -4.67,9.64 z"
       id="path23"
       inkscape:connector-curvature="0"
       style="fill:#f26a21" /><path
       class="st1"
       d="m 113.03,18.95 0,-0.36 -0.14,0 0,-0.09 0.39,0 0,0.09 -0.16,0 0,0.36 -0.09,0 z m 0.76,0 0,-0.32 -0.11,0.27 -0.11,0 -0.11,-0.27 0,0.32 -0.11,0 0,-0.46 0.16,0 0.11,0.3 0.11,-0.3 0.16,0 0,0.46 -0.1,0 z"
       id="path25"
       inkscape:connector-curvature="0"
       style="fill:#f99f1d" /></g><g
     id="PayPal"
     transform="translate(3.9583334,58.541667)"><path
       class="st4"
       d="m 197.73,9.88 -4.13,0 c -0.28,0 -0.52,0.2 -0.57,0.48 l -1.67,10.59 c -0.04,0.2 0.13,0.39 0.33,0.39 l 2.11,0 c 0.2,0 0.37,-0.15 0.39,-0.33 l 0.48,-3 c 0.04,-0.28 0.28,-0.48 0.57,-0.48 l 1.3,0 c 2.73,0 4.28,-1.32 4.69,-3.93 0.19,-1.13 0,-2.04 -0.52,-2.67 -0.55,-0.7 -1.59,-1.05 -2.98,-1.05 l 0,0 z m 0.49,3.85 c -0.22,1.48 -1.35,1.48 -2.45,1.48 l -0.63,0 0.44,-2.76 c 0.02,-0.17 0.17,-0.3 0.33,-0.3 l 0.28,0 c 0.74,0 1.45,0 1.82,0.43 0.22,0.26 0.28,0.63 0.21,1.15 l 0,0 z"
       id="path28"
       inkscape:connector-curvature="0"
       style="fill:#009bde" /><path
       class="st5"
       d="m 168.31,9.88 -4.13,0 c -0.28,0 -0.52,0.2 -0.57,0.48 l -1.67,10.59 c -0.04,0.2 0.13,0.39 0.33,0.39 l 1.97,0 c 0.28,0 0.52,-0.2 0.57,-0.48 L 165.25,18 c 0.04,-0.28 0.28,-0.48 0.57,-0.48 l 1.3,0 c 2.73,0 4.28,-1.32 4.69,-3.93 0.19,-1.13 0,-2.04 -0.52,-2.67 -0.55,-0.69 -1.59,-1.04 -2.98,-1.04 z m 0.48,3.85 c -0.22,1.48 -1.35,1.48 -2.45,1.48 l -0.63,0 0.44,-2.76 c 0.02,-0.17 0.17,-0.3 0.33,-0.3 l 0.28,0 c 0.74,0 1.45,0 1.82,0.43 0.23,0.26 0.29,0.63 0.21,1.15 l 0,0 z m 11.85,-0.05 -1.98,0 c -0.17,0 -0.32,0.13 -0.33,0.3 l -0.09,0.56 -0.13,-0.2 c -0.43,-0.61 -1.37,-0.83 -2.34,-0.83 -2.19,0 -4.04,1.65 -4.41,3.97 -0.19,1.15 0.07,2.26 0.74,3.04 0.61,0.7 1.46,1 2.48,1 1.76,0 2.73,-1.13 2.73,-1.13 l -0.09,0.56 c -0.04,0.2 0.13,0.39 0.33,0.39 l 1.78,0 c 0.28,0 0.52,-0.2 0.57,-0.48 l 1.08,-6.77 c 0.03,-0.21 -0.12,-0.41 -0.34,-0.41 z m -2.74,3.85 c -0.19,1.13 -1.09,1.89 -2.22,1.89 -0.57,0 -1.04,-0.19 -1.33,-0.54 -0.3,-0.35 -0.41,-0.83 -0.32,-1.39 0.19,-1.11 1.09,-1.91 2.21,-1.91 0.56,0 1.02,0.19 1.32,0.54 0.3,0.37 0.43,0.86 0.34,1.41 z"
       id="path30"
       inkscape:connector-curvature="0"
       style="fill:#002f87" /><path
       class="st4"
       d="m 210.06,13.68 -1.98,0 c -0.17,0 -0.32,0.13 -0.33,0.3 l -0.09,0.56 -0.13,-0.2 c -0.43,-0.61 -1.37,-0.83 -2.34,-0.83 -2.19,0 -4.04,1.65 -4.41,3.97 -0.19,1.15 0.07,2.26 0.74,3.04 0.61,0.7 1.46,1 2.48,1 1.76,0 2.73,-1.13 2.73,-1.13 l -0.09,0.56 c -0.04,0.2 0.13,0.39 0.33,0.39 l 1.78,0 c 0.28,0 0.52,-0.2 0.57,-0.48 l 1.08,-6.77 c 0.03,-0.21 -0.11,-0.41 -0.34,-0.41 z m -2.74,3.85 c -0.19,1.13 -1.09,1.89 -2.22,1.89 -0.57,0 -1.04,-0.19 -1.33,-0.54 -0.3,-0.35 -0.41,-0.83 -0.32,-1.39 0.19,-1.11 1.09,-1.91 2.21,-1.91 0.56,0 1.02,0.19 1.32,0.54 0.3,0.37 0.43,0.86 0.34,1.41 l 0,0 z"
       id="path32"
       inkscape:connector-curvature="0"
       style="fill:#009bde" /><path
       class="st5"
       d="m 191.17,13.68 -1.98,0 c -0.19,0 -0.37,0.09 -0.48,0.26 l -2.74,4.04 -1.17,-3.87 c -0.07,-0.24 -0.3,-0.41 -0.56,-0.41 l -1.95,0 c -0.24,0 -0.41,0.24 -0.33,0.46 l 2.19,6.41 -2.06,2.89 c -0.17,0.22 0,0.54 0.28,0.54 l 1.98,0 c 0.19,0 0.37,-0.09 0.46,-0.24 l 6.6,-9.53 c 0.21,-0.24 0.04,-0.55 -0.24,-0.55 l 0,0 z"
       id="path34"
       inkscape:connector-curvature="0"
       style="fill:#002f87" /><path
       class="st4"
       d="m 212.4,10.15 -1.69,10.77 c -0.04,0.2 0.13,0.39 0.33,0.39 l 1.71,0 c 0.28,0 0.52,-0.2 0.57,-0.48 l 1.67,-10.59 c 0.04,-0.2 -0.13,-0.39 -0.33,-0.39 l -1.91,0 c -0.18,0.03 -0.33,0.14 -0.35,0.3 l 0,0 z m -58.53,0.26 c 0.22,-1.41 0,-2.37 -0.76,-3.24 -0.85,-0.96 -2.37,-1.37 -4.32,-1.37 l -5.65,0 c -0.39,0 -0.74,0.3 -0.8,0.69 l -2.37,14.94 c -0.06,0.3 0.19,0.56 0.48,0.56 l 3.49,0 -0.24,1.52 c -0.04,0.26 0.17,0.48 0.43,0.48 l 2.95,0 c 0.35,0 0.65,-0.26 0.7,-0.59 l 0.04,-0.15 0.56,-3.52 0.04,-0.19 c 0.06,-0.35 0.35,-0.59 0.7,-0.59 l 0.44,0 c 2.86,0 5.08,-1.15 5.73,-4.51 0.28,-1.41 0.13,-2.58 -0.59,-3.39 -0.24,-0.25 -0.52,-0.47 -0.83,-0.64"
       id="path36"
       inkscape:connector-curvature="0"
       style="fill:#009bde" /><path
       class="st6"
       d="m 153.87,10.41 c 0.22,-1.41 0,-2.37 -0.76,-3.24 -0.85,-0.96 -2.37,-1.37 -4.32,-1.37 l -5.65,0 c -0.39,0 -0.74,0.3 -0.8,0.69 l -2.37,14.94 c -0.06,0.3 0.19,0.56 0.48,0.56 l 3.49,0 0.87,-5.56 -0.02,0.17 c 0.06,-0.39 0.39,-0.69 0.8,-0.69 l 1.67,0 c 3.26,0 5.82,-1.32 6.56,-5.15 l 0.05,-0.35"
       id="path38"
       inkscape:connector-curvature="0"
       style="fill:#022169" /><path
       class="st5"
       d="m 145.77,10.43 c 0.04,-0.24 0.19,-0.43 0.39,-0.54 0.09,-0.04 0.2,-0.07 0.3,-0.07 l 4.45,0 c 0.52,0 1.02,0.04 1.46,0.11 0.13,0.02 0.26,0.04 0.37,0.07 0.13,0.02 0.24,0.06 0.35,0.09 l 0.17,0.06 c 0.22,0.07 0.43,0.17 0.61,0.26 0.22,-1.41 0,-2.37 -0.76,-3.24 -0.85,-0.96 -2.37,-1.37 -4.32,-1.37 l -5.65,0 c -0.39,0 -0.74,0.3 -0.8,0.69 l -2.37,14.94 c -0.06,0.3 0.19,0.56 0.48,0.56 l 3.49,0 0.87,-5.56 0.96,-6 z"
       id="path40"
       inkscape:connector-curvature="0"
       style="fill:#002f87" /></g><path
     id="American_Express"
     class="st7"
     d="m 73.536663,31.67 -0.11,0 c 0,-0.06 -0.01,-0.14 -0.01,-0.15 0,-0.03 0,-0.08 -0.08,-0.08 l -0.16,0 0,0.24 -0.07,0 0,-0.56 0.24,0 c 0.1,0 0.18,0.03 0.18,0.13 0,0.08 -0.03,0.11 -0.06,0.14 0.03,0.03 0.06,0.06 0.06,0.11 l 0,0.1 c 0,0.03 0,0.03 0.03,0.03 l -0.02,0.04 0,0 z m -0.11,-0.4 c 0,-0.07 -0.04,-0.07 -0.07,-0.07 l -0.19,0 0,0.15 0.16,0 c 0.05,0 0.1,-0.03 0.1,-0.08 m 0.45,0.11 c 0,-0.32 -0.26,-0.59 -0.61,-0.59 -0.32,0 -0.58,0.26 -0.58,0.59 0,0.35 0.26,0.61 0.58,0.61 0.35,0 0.61,-0.26 0.61,-0.61 m -0.08,0 c 0,0.29 -0.24,0.5 -0.53,0.5 -0.29,0 -0.5,-0.21 -0.5,-0.5 0,-0.26 0.21,-0.5 0.5,-0.5 0.29,0 0.53,0.24 0.53,0.5 M 106.64666,20.73 c 0,0.79 -0.52,1.17 -1.42,1.17 l -1.73,0 0,-0.79 1.73,0 c 0.17,0 0.29,-0.03 0.35,-0.08 0.06,-0.06 0.11,-0.14 0.11,-0.24 0,-0.11 -0.05,-0.22 -0.11,-0.26 -0.06,-0.06 -0.15,-0.08 -0.32,-0.08 -0.82,-0.03 -1.87,0.03 -1.87,-1.16 0,-0.53 0.35,-1.12 1.28,-1.12 l 1.78,0 0,0.79 -1.64,0 c -0.17,0 -0.28,0 -0.35,0.06 -0.08,0.08 -0.14,0.17 -0.14,0.29 0,0.14 0.08,0.22 0.18,0.26 0.11,0.03 0.22,0.06 0.35,0.06 l 0.49,0 c 0.5,0 0.82,0.11 1.05,0.29 0.15,0.2 0.26,0.43 0.26,0.81 m -3.75,-0.8 c -0.22,-0.18 -0.54,-0.29 -1.04,-0.29 l -0.49,0 c -0.13,0 -0.24,-0.03 -0.35,-0.06 -0.1,-0.04 -0.18,-0.13 -0.18,-0.26 0,-0.13 0.03,-0.21 0.14,-0.29 0.07,-0.06 0.18,-0.06 0.35,-0.06 l 1.64,0 0,-0.79 -1.78,0 c -0.96,0 -1.279997,0.59 -1.279997,1.12 0,1.18 1.039997,1.13 1.869997,1.16 0.17,0 0.26,0.03 0.32,0.08 0.05,0.04 0.11,0.15 0.11,0.26 0,0.1 -0.06,0.18 -0.11,0.24 -0.08,0.06 -0.18,0.08 -0.35,0.08 l -1.73,0 0,0.79 1.73,0 c 0.91,0 1.42,-0.38 1.42,-1.17 -0.01,-0.39 -0.12,-0.62 -0.27,-0.81 m -3.429997,1.21 -2.1,0 0,-0.75 2.06,0 0,-0.75 -2.06,0 0,-0.68 2.1,0 0,-0.78 -2.98,0 0,3.74 2.98,0 0,-0.78 0,0 z m -3.93,-2.79 c -0.29,-0.15 -0.64,-0.18 -1.1,-0.18 l -2.04,0 0,3.74 0.91,0 0,-1.37 0.96,0 c 0.32,0 0.5,0.03 0.64,0.17 0.15,0.18 0.15,0.5 0.15,0.75 l 0,0.45 0.89,0 0,-0.73 c 0,-0.33 -0.03,-0.5 -0.14,-0.68 -0.08,-0.11 -0.24,-0.25 -0.46,-0.32 0.25,-0.08 0.64,-0.4 0.64,-0.99 -0.01,-0.44 -0.16,-0.68 -0.45,-0.84 m -5.07,-0.18 -2.85,0 -1.16,1.23 -1.08,-1.23 -3.6,0 0,3.74 3.55,0 1.14,-1.23 1.1,1.23 1.73,0 0,-1.26 1.13,0 c 0.77,0 1.54,-0.21 1.54,-1.26 -0.01,-1.01 -0.81,-1.22 -1.5,-1.22 m 4.34,1.54 c -0.14,0.06 -0.26,0.06 -0.43,0.06 l -1.08,0.03 0,-0.85 1.08,0 c 0.17,0 0.32,0 0.43,0.07 0.11,0.06 0.18,0.17 0.18,0.32 0,0.17 -0.07,0.29 -0.18,0.37 m -4.34,0.19 -1.18,0 0,-0.95 1.18,0 c 0.32,0 0.53,0.13 0.53,0.45 0,0.31 -0.21,0.5 -0.53,0.5 m -3.44,0.14 1.38,-1.46 0,3.01 -1.38,-1.55 0,0 z m -2.17,1.1 -2.21,0 0,-0.75 1.98,0 0,-0.75 -1.98,0 0,-0.68 2.24,0 0.99,1.09 -1.02,1.09 0,0 z m 19.309997,-5.68 -1.28,0 -1.68,-2.8 0,2.8 -1.809997,0 -0.35,-0.82 -1.87,0 -0.35,0.82 -1.04,0 c -0.43,0 -0.99,-0.1 -1.31,-0.42 -0.29,-0.32 -0.46,-0.75 -0.46,-1.42 0.01,-0.56 0.08,-1.06 0.49,-1.46 0.26,-0.29 0.75,-0.43 1.36,-0.43 l 0.85,0 0,0.81 -0.85,0 c -0.32,0 -0.52,0.06 -0.69,0.21 -0.17,0.17 -0.24,0.46 -0.24,0.85 0,0.4 0.07,0.7 0.24,0.89 0.13,0.13 0.38,0.18 0.61,0.18 l 0.4,0 1.28,-2.94 1.32,0 1.499997,3.53 0,-3.53 1.37,0 1.57,2.59 0,-2.59 0.92,0 0.02,3.73 0,0 z m -10.579997,-3.74 -0.9,0 0,3.74 0.9,0 0,-3.74 z m -1.9,0.17 c -0.29,-0.17 -0.61,-0.17 -1.07,-0.17 l -2.04,0 0,3.74 0.88,0 0,-1.35 0.96,0 c 0.32,0 0.53,0.03 0.67,0.15 0.15,0.2 0.13,0.52 0.13,0.72 l 0,0.47 0.92,0 0,-0.74 c 0,-0.32 -0.03,-0.49 -0.17,-0.67 -0.08,-0.11 -0.24,-0.24 -0.43,-0.32 0.25,-0.11 0.64,-0.4 0.64,-0.99 -0.01,-0.42 -0.19,-0.66 -0.49,-0.84 m -3.75,2.81 -2.09,0 0,-0.75 2.06,0 0,-0.77 -2.06,0 0,-0.67 2.09,0 0,-0.78 -2.99,0 0,3.74 2.99,0 0,-0.77 z m -3.66,-2.98 -1.46,0 -1.1,2.54 -1.17,-2.54 -1.43,0 0,3.53 -1.53,-3.53 -1.32,0 -1.6,3.74 0.96,0 0.33,-0.82 1.88,0 0.33,0.82 1.82,0 0,-2.93 1.31,2.93 0.77,0 1.31,-2.93 0,2.93 0.9,0 0,-3.74 z m 14.46,2.12 -0.61,-1.48 -0.61,1.48 1.22,0 0,0 z m -7.74,-0.59 c -0.14,0.08 -0.26,0.08 -0.44,0.08 l -1.1,0 0,-0.83 1.1,0 c 0.15,0 0.33,0 0.44,0.06 0.11,0.07 0.17,0.18 0.17,0.35 -0.01,0.15 -0.06,0.29 -0.17,0.34 m -14.72,0.59 0.63,-1.48 0.61,1.48 c 0,0 -1.24,0 -1.24,0 z M 106.42666,0 74.636663,0 l 0,13.47 1.08,-2.48 2.32,0 0.32,0.61 0,-0.61 2.71,0 0.61,1.32 0.6,-1.32 8.65,0 c 0.4,0 0.75,0.07 1.02,0.29 l 0,-0.29 2.38,0 0,0.29 c 0.39,-0.22 0.91,-0.29 1.49,-0.29 l 3.44,0 0.32,0.61 0,-0.61 2.529997,0 0.38,0.61 0,-0.61 2.48,0 0,5.23 -2.5,0 -0.49,-0.79 0,0.79 -3.119997,0 -0.35,-0.85 -0.77,0 -0.35,0.85 -1.63,0 c -0.64,0 -1.11,-0.15 -1.43,-0.32 l 0,0.32 -3.87,0 0,-1.2 c 0,-0.17 -0.03,-0.19 -0.14,-0.19 l -0.13,0 0,1.4 -7.47,0 0,-0.67 -0.26,0.67 -1.57,0 -0.26,-0.64 0,0.64 -3.02,0 -0.32,-0.85 -0.77,0 -0.35,0.85 -1.55,0 0,15.77 31.789997,0 0,-9.58 c -0.33,0.15 -0.82,0.24 -1.29,0.24 l -2.32,0 0,-0.32 c -0.26,0.21 -0.75,0.32 -1.2,0.32 l -7.309997,0 0,-1.2 c 0,-0.17 -0.03,-0.17 -0.17,-0.17 l -0.13,0 0,1.37 -2.41,0 0,-1.42 c -0.4,0.19 -0.85,0.19 -1.25,0.19 l -0.26,0 0,1.23 -2.94,0 -0.69,-0.81 -0.77,0.81 -4.72,0 0,-5.24 4.8,0 0.68,0.81 0.75,-0.81 3.23,0 c 0.38,0 0.99,0.06 1.25,0.32 l 0,-0.32 2.88,0 c 0.29,0 0.85,0.06 1.22,0.32 l 0,-0.32 4.339997,0 0,0.32 c 0.25,-0.21 0.69,-0.32 1.1,-0.32 l 2.47,0 0,0.32 c 0.26,-0.18 0.64,-0.32 1.13,-0.32 l 1.64,0 -0.01,-17.42 0,0 z"
     inkscape:connector-curvature="0"
     style="fill:#0078a9"
     inkscape:export-xdpi="153.17845"
     inkscape:export-ydpi="153.17845" /></svg>