<?xml version="1.0" ?><svg style="enable-background:new 0 0 48 48;" version="1.1" viewBox="0 0 48 48" xml:space="preserve" xmlns="http://www.w3.org/2000/svg" xmlns:xlink="http://www.w3.org/1999/xlink"><g id="Padding__x26__Artboard"/><g id="Icons"><g><path d="M23.49847,23.36584c-0.22253-0.01105-0.38092,0.14447-0.41254,0.4248    c0.20502,0,0.40063,0.00208,0.59601-0.0025c0.02771-0.00061,0.07129-0.02881,0.07922-0.05334    C23.81506,23.56702,23.67505,23.37451,23.49847,23.36584z" style="fill:#303030;"/><path d="M18.49274,24.29993c-0.14246,0.09772-0.18707,0.30988-0.091,0.4328    c0.09235,0.11798,0.29724,0.11377,0.4248-0.0144c0.13239-0.133,0.18201-0.29919,0.18372-0.48962    C18.79425,24.1911,18.61163,24.21832,18.49274,24.29993z" style="fill:#303030;"/><path d="M28.30804,24.29504c-0.11401,0.07227-0.16779,0.18567-0.13617,0.31281    c0.0177,0.07111,0.07587,0.1582,0.13885,0.18646c0.11835,0.05304,0.23853,0.01208,0.33099-0.08496    c0.12622-0.13251,0.16913-0.2962,0.18146-0.48871C28.63336,24.19574,28.46283,24.1969,28.30804,24.29504z" style="fill:#303030;"/><path d="M32.02032,23.65045c-0.065-0.23224-0.30365-0.32001-0.49707-0.17633    c-0.07568,0.05634-0.1413,0.1391-0.18451,0.22363c-0.10071,0.19666-0.12231,0.41064-0.09131,0.62939    c0.0202,0.14215,0.07172,0.2652,0.22272,0.31128c0.14722,0.04492,0.30157-0.01581,0.40601-0.15692    c0.12756-0.1723,0.17542-0.37,0.18298-0.5827C32.04675,23.81592,32.04285,23.73053,32.02032,23.65045z" style="fill:#303030;"/><path d="M36.73413,14.05737H11.26587c-1.32715,0-2.40674,1.07959-2.40674,2.40625v15.07227    c0,1.32715,1.07959,2.40674,2.40674,2.40674h25.46826c1.32715,0,2.40674-1.07959,2.40674-2.40674V16.46362    C39.14087,15.13696,38.06128,14.05737,36.73413,14.05737z M22.46356,22.90332c-0.0238,0.1839-0.04633,0.35883-0.0705,0.54651    c-0.10229,0-0.19873,0-0.31262,0c-0.0376,0.22083-0.07379,0.43127-0.10919,0.64197    c-0.01868,0.11115-0.03528,0.22253-0.05371,0.33362c-0.03381,0.20374,0.03351,0.27893,0.24188,0.26849    c0.03235-0.00159,0.06451-0.00531,0.11493-0.00958c-0.02118,0.15442-0.03882,0.30121-0.06372,0.44672    c-0.00439,0.02551-0.03717,0.06311-0.06036,0.0658c-0.17542,0.02087-0.35443,0.0611-0.52692,0.0434    c-0.20947-0.02142-0.3382-0.19208-0.3291-0.42493c0.01019-0.2616,0.04633-0.52319,0.08661-0.78241    c0.07648-0.49097,0.164-0.98016,0.24786-1.47565c0.21014,0,0.39661,0,0.59424,0c-0.01611,0.1131-0.03101,0.21765-0.0473,0.33215    C22.27295,22.8941,22.36017,22.89832,22.46356,22.90332z M28.65253,23.39301c-0.24658-0.00189-0.49347,0.03113-0.75665,0.04993    c0.01996-0.12762,0.04077-0.2821,0.07147-0.43469c0.00531-0.02643,0.0495-0.05438,0.08118-0.0647    c0.29425-0.0954,0.59351-0.14233,0.90222-0.08209c0.37402,0.073,0.59534,0.37109,0.54498,0.7489    c-0.07129,0.53528-0.14978,1.0697-0.22675,1.61536c-0.16815,0-0.33466,0-0.50812,0c0-0.0592,0-0.1181,0-0.1925    c-0.05212,0.04034-0.0946,0.07513-0.13904,0.10724c-0.23157,0.16797-0.55829,0.1958-0.77045,0.05865    c-0.25891-0.16736-0.28864-0.42896-0.25562-0.69934c0.0553-0.45264,0.39331-0.72961,0.90778-0.75861    c0.12622-0.00714,0.25311-0.0011,0.38574-0.0011C28.94397,23.48993,28.88727,23.39484,28.65253,23.39301z M30.88824,22.87006    c-0.07269,0.22858-0.14417,0.45386-0.21649,0.6814c-0.20117,0.00665-0.2876,0.05267-0.34583,0.2699    c-0.0835,0.31195-0.13831,0.63177-0.2019,0.94897c-0.03027,0.15088-0.05249,0.30328-0.07806,0.453c-0.21503,0-0.41571,0-0.62323,0    c0.12695-0.77679,0.2525-1.54541,0.37933-2.32159c0.1889,0,0.36951,0,0.56268,0c-0.01227,0.09167-0.02399,0.17859-0.03955,0.29492    C30.48755,23.01672,30.62415,22.82764,30.88824,22.87006z M31.61786,25.17932c-0.39288,0.1507-0.78223-0.03119-0.92291-0.44879    c-0.19232-0.5708-0.08148-1.10138,0.29773-1.56049c0.34436-0.41693,0.76526-0.42151,1.21857-0.02832    c0.04419-0.2644,0.086-0.51398,0.12964-0.7749c0.19519,0,0.38995,0,0.60028,0c-0.0451,0.27942-0.08997,0.55963-0.13568,0.83972    c-0.10223,0.62598-0.20752,1.25146-0.3045,1.87817c-0.01453,0.09369-0.05072,0.11572-0.13574,0.11273    c-0.1496-0.00525-0.29956-0.0014-0.45898-0.0014c0-0.06525,0-0.11859,0-0.17352    C31.80487,25.07855,31.71625,25.14154,31.61786,25.17932z M27.65625,23.065c-0.12769-0.04327-0.24731-0.09467-0.37201-0.12415    c-0.30817-0.07281-0.57349,0.02795-0.74829,0.29108c-0.2135,0.32147-0.27148,0.67981-0.18518,1.05249    c0.07477,0.32312,0.362,0.49048,0.69061,0.4184c0.12195-0.02667,0.24005-0.07202,0.37128-0.1123    c-0.03143,0.19891-0.05963,0.39313-0.09552,0.586c-0.00519,0.02753-0.04608,0.06573-0.07391,0.06891    c-0.2088,0.02399-0.422,0.07397-0.6272,0.05261c-0.46729-0.04871-0.75659-0.32318-0.86475-0.78271    c-0.11243-0.47717-0.06842-0.9458,0.13367-1.3913c0.33978-0.74939,1.07013-1.01208,1.8642-0.6701    C27.71796,22.65912,27.68762,22.85791,27.65625,23.065z M26.12677,26.13613c-0.24387,0.71732-0.59574,1.38444-1.05542,1.9686    c-0.20032-0.15088-0.39929-0.30341-0.57538-0.48132c0.3847-0.49286,0.69196-1.04846,0.9071-1.64728L26.12677,26.13613z     M25.43933,22.14215c-0.21576-0.64392-0.53357-1.24139-0.94336-1.76642c0.17609-0.17792,0.37506-0.33038,0.57538-0.4812    c0.4516,0.57379,0.80981,1.22351,1.05548,1.9256L25.43933,22.14215z M24.67487,23.00134    c0.01251-0.08081,0.03741-0.11414,0.1228-0.11053c0.14929,0.00623,0.29901,0.00171,0.45929,0.00171    c-0.01392,0.10272-0.02582,0.19012-0.0415,0.30542c0.1629-0.18182,0.30042-0.37079,0.56458-0.32788    c-0.07318,0.22968-0.14508,0.45544-0.21735,0.6825c-0.19574,0.00317-0.28595,0.04938-0.3421,0.25836    c-0.08514,0.31641-0.14111,0.64081-0.20593,0.96252c-0.0296,0.14667-0.05072,0.2951-0.07739,0.4527    c-0.21442,0-0.41107,0-0.62219,0c0.04791-0.3009,0.09387-0.59552,0.14191-0.88971    C24.52954,23.89136,24.60577,23.4469,24.67487,23.00134z M23.87708,24.27106c-0.26813,0.00006-0.53619,0.00055-0.8042,0.00134    c-0.00891,0-0.01782,0.00452-0.03522,0.00934c-0.03412,0.22858,0.0611,0.38147,0.27698,0.44287    c0.23523,0.06683,0.46582,0.026,0.69379-0.04138c0.05823-0.01721,0.11572-0.0365,0.1972-0.06238    c-0.0343,0.18939-0.06287,0.36365-0.10046,0.53595c-0.00574,0.02594-0.05133,0.05334-0.08319,0.06165    c-0.30444,0.07947-0.61224,0.10278-0.92004,0.0235c-0.37085-0.09564-0.58936-0.34143-0.65308-0.71423    c-0.0849-0.49689,0.01123-0.95605,0.33978-1.34888c0.20923-0.25018,0.48199-0.37354,0.81189-0.33362    c0.51984,0.06293,0.80225,0.46368,0.73035,1.02582C24.27972,24.27094,24.27972,24.27081,23.87708,24.27106z M19.84357,18.0943    c-3.25592,0-5.9043,2.64941-5.9043,5.90533c0,0.61011,0.09296,1.19867,0.2655,1.75281    c0.02075,0.06659,0.04846,0.12976,0.07159,0.19537c0.80731,2.30023,2.99457,3.95703,5.5672,3.95703    c1.0788,0,2.08771-0.29572,2.95911-0.8031c0.17865,0.1875,0.36536,0.36658,0.56281,0.53461    c-1.02301,0.64148-2.22791,1.01849-3.52191,1.01849c-3.66901,0-6.6543-2.98529-6.6543-6.65521    c0-3.66998,2.98529-6.65533,6.6543-6.65533c1.29401,0,2.4989,0.37714,3.52191,1.01855    c-0.19745,0.16797-0.38416,0.34705-0.56281,0.53455C21.93127,18.39001,20.92236,18.0943,19.84357,18.0943z M20.72595,23.81232    c0.32727,0.1377,0.53363,0.36713,0.42432,0.89734c-0.05249,0.25494-0.22113,0.41315-0.4668,0.47656    c-0.34814,0.08978-0.69702,0.0545-1.06042-0.01611c0.026-0.17609,0.05029-0.3407,0.07343-0.49738    c0.20947,0.01941,0.40778,0.0415,0.60669,0.05377c0.05859,0.00372,0.12329-0.01007,0.17749-0.03369    c0.13049-0.05676,0.15503-0.20709,0.04401-0.29669c-0.07922-0.06396-0.1745-0.10901-0.26508-0.15802    c-0.33051-0.17926-0.45654-0.42548-0.39465-0.77679c0.06073-0.34467,0.27075-0.54169,0.63422-0.60089    c0.25793-0.04199,0.5116-0.02026,0.77899,0.0285c-0.0257,0.18121-0.0481,0.33911-0.07281,0.51312    c-0.12634-0.00562-0.24664-0.0119-0.36707-0.01624c-0.2229-0.00787-0.33923,0.03644-0.3576,0.14941    C20.45056,23.7204,20.60596,23.7619,20.72595,23.81232z M18.50726,25.26715c-0.38483,0.09406-0.68152-0.12811-0.72394-0.51984    c-0.06226-0.5752,0.28943-0.96259,0.91632-1.00421c0.12561-0.00836,0.2522-0.00116,0.37579-0.00116    c0.07404-0.22424,0.00543-0.3454-0.21912-0.34534c-0.25507,0.00012-0.51007,0.03113-0.77289,0.04932    c0.01093-0.06531,0.02502-0.15161,0.03949-0.23779c0.04395-0.26001,0.04181-0.27588,0.30151-0.31152    c0.23462-0.03217,0.47809-0.0542,0.71161-0.02728c0.37952,0.0437,0.60083,0.35529,0.55249,0.73468    c-0.06537,0.51233-0.13849,1.02374-0.21277,1.53491c-0.00519,0.03583-0.04584,0.09302-0.07269,0.09473    c-0.14862,0.00928-0.29803,0.00446-0.45441,0.00446c0-0.07104,0-0.12549,0-0.16345    C18.80133,25.14062,18.66052,25.22961,18.50726,25.26715z M17.20734,23.20532c-0.02179,0.05481-0.04498,0.10913-0.06506,0.16449    c-0.20673,0.56934-0.41632,1.13751-0.61591,1.70929c-0.03662,0.1048-0.08563,0.14032-0.19061,0.12952    c-0.08289-0.00848-0.16748-0.00171-0.27069-0.00171c-0.01849-0.68518-0.0368-1.35999-0.05511-2.03479    c-0.00769-0.00189-0.01538-0.00391-0.02301-0.0058c-0.11609,0.6745-0.23218,1.349-0.34967,2.03162c-0.18933,0-0.37531,0-0.57831,0    c0.15997-0.94263,0.31909-1.88013,0.4798-2.8266c0.28931,0,0.57391,0,0.89532,0c0,0.54907,0,1.09937,0,1.64978    c0.01648,0.00128,0.03308,0.00262,0.04956,0.00391c0.10614-0.30939,0.21228-0.61877,0.31842-0.92822    c0.073-0.2132,0.14301-0.42749,0.22162-0.63855c0.01434-0.03882,0.06238-0.09161,0.09607-0.09241    c0.28601-0.00745,0.5722-0.00433,0.88623-0.00433c-0.15881,0.95129-0.31531,1.88861-0.47333,2.83521    c-0.20288,0-0.4024,0-0.61511,0c0.1059-0.66406,0.21112-1.32428,0.31628-1.9845    C17.22504,23.2099,17.21619,23.20764,17.20734,23.20532z M28.15607,30.65485c-2.97809,0-5.50482-1.966-6.35193-4.66821    c0.10638-0.00543,0.2135-0.01373,0.32062-0.02899l0.11823-0.0166l0.31708-0.06952    c0.78522,2.34033,2.99481,4.03333,5.59601,4.03333c3.2558,0,5.90521-2.64941,5.90521-5.90521    c0-0.66473-0.11542-1.30164-0.31891-1.89832c-0.05609-0.16467-0.11774-0.32672-0.18774-0.48462    c-0.91815-2.07159-2.99084-3.5224-5.39856-3.5224c-2.4809,0-4.60571,1.5401-5.47864,3.71295h-0.7981    c0.90912-2.59442,3.37573-4.46295,6.27673-4.46295c3.66986,0,6.65521,2.98535,6.65521,6.65533    C34.81128,27.66956,31.82593,30.65485,28.15607,30.65485z" style="fill:#303030;"/></g></g></svg>