<?xml version="1.0" encoding="UTF-8" standalone="no"?>
<!-- Created with Inkscape (http://www.inkscape.org/) -->

<svg
   xmlns:dc="http://purl.org/dc/elements/1.1/"
   xmlns:cc="http://creativecommons.org/ns#"
   xmlns:rdf="http://www.w3.org/1999/02/22-rdf-syntax-ns#"
   xmlns:svg="http://www.w3.org/2000/svg"
   xmlns="http://www.w3.org/2000/svg"
   xmlns:sodipodi="http://sodipodi.sourceforge.net/DTD/sodipodi-0.dtd"
   xmlns:inkscape="http://www.inkscape.org/namespaces/inkscape"
   version="1.1"
   width="743.66199"
   height="535.87323"
   id="svg2"
   inkscape:version="0.91 r13725"
   sodipodi:docname="PricewaterhouseCoopers_Logo.svg">
  <metadata
     id="metadata2892">
    <rdf:RDF>
      <cc:Work
         rdf:about="">
        <dc:format>image/svg+xml</dc:format>
        <dc:type
           rdf:resource="http://purl.org/dc/dcmitype/StillImage" />
        <dc:title></dc:title>
      </cc:Work>
    </rdf:RDF>
  </metadata>
  <sodipodi:namedview
     pagecolor="#ffffff"
     bordercolor="#666666"
     borderopacity="1"
     objecttolerance="10"
     gridtolerance="10"
     guidetolerance="10"
     inkscape:pageopacity="0"
     inkscape:pageshadow="2"
     inkscape:window-width="1920"
     inkscape:window-height="1109"
     id="namedview2890"
     showgrid="false"
     inkscape:zoom="0.62582788"
     inkscape:cx="123.69845"
     inkscape:cy="379.49794"
     inkscape:window-x="0"
     inkscape:window-y="0"
     inkscape:window-maximized="1"
     inkscape:current-layer="svg2"
     fit-margin-top="0"
     fit-margin-left="0"
     fit-margin-right="0"
     fit-margin-bottom="0" />
  <defs
     id="defs4">
    <inkscape:perspective
       sodipodi:type="inkscape:persp3d"
       inkscape:vp_x="0 : 379.49731 : 1"
       inkscape:vp_y="0 : 1000 : 0"
       inkscape:vp_z="1000 : 379.49731 : 1"
       inkscape:persp3d-origin="500 : 252.99821 : 1"
       id="perspective2894" />
    <clipPath
       id="clipPath2940">
      <path
         d="m 104.072,244.53 13.958,0 0,-16.389 -13.958,0 0,16.389 z"
         id="path2942"
         inkscape:connector-curvature="0" />
    </clipPath>
    <clipPath
       id="clipPath2926">
      <path
         d="m 104.072,254.114 34.584,0 0,-25.973 -34.584,0 0,25.973 z"
         id="path2928"
         inkscape:connector-curvature="0" />
    </clipPath>
    <clipPath
       id="clipPath2912">
      <path
         d="m 104.072,263.695 21.122,0 0,-35.554 -21.122,0 0,35.554 z"
         id="path2914"
         inkscape:connector-curvature="0" />
    </clipPath>
    <clipPath
       id="clipPath2898">
      <path
         d="m 104.072,259.95 24.884,0 0,-31.809 -24.884,0 0,31.809 z"
         id="path2900"
         inkscape:connector-curvature="0" />
    </clipPath>
    <clipPath
       id="clipPath2884">
      <path
         d="m 104.072,239.726 39.448,0 0,-11.585 -39.448,0 0,11.585 z"
         id="path2886"
         inkscape:connector-curvature="0" />
    </clipPath>
    <clipPath
       id="clipPath2872">
      <path
         d="m 0,0 595.276,0 0,841.89 L 0,841.89 0,0 Z"
         id="path2874"
         inkscape:connector-curvature="0" />
    </clipPath>
    <clipPath
       id="clipPath2852">
      <path
         d="m 39.118,37.134 28.126,0 0,26.954 -28.126,0 0,-26.954 z"
         id="path2854"
         inkscape:connector-curvature="0" />
    </clipPath>
    <clipPath
       id="clipPath4109">
      <path
         d="m 104.072,244.53 13.958,0 0,-16.389 -13.958,0 0,16.389 z"
         id="path4111"
         inkscape:connector-curvature="0" />
    </clipPath>
    <clipPath
       id="clipPath4095">
      <path
         d="m 104.072,254.114 34.584,0 0,-25.973 -34.584,0 0,25.973 z"
         id="path4097"
         inkscape:connector-curvature="0" />
    </clipPath>
    <clipPath
       id="clipPath4081">
      <path
         d="m 104.072,263.695 21.122,0 0,-35.554 -21.122,0 0,35.554 z"
         id="path4083"
         inkscape:connector-curvature="0" />
    </clipPath>
    <clipPath
       id="clipPath4067">
      <path
         d="m 104.072,259.95 24.884,0 0,-31.809 -24.884,0 0,31.809 z"
         id="path4069"
         inkscape:connector-curvature="0" />
    </clipPath>
    <clipPath
       id="clipPath4053">
      <path
         d="m 104.072,239.726 39.448,0 0,-11.585 -39.448,0 0,11.585 z"
         id="path4055"
         inkscape:connector-curvature="0" />
    </clipPath>
    <clipPath
       id="clipPath4041">
      <path
         d="m 0,0 595.276,0 0,841.89 L 0,841.89 0,0 Z"
         id="path4043"
         inkscape:connector-curvature="0" />
    </clipPath>
    <clipPath
       id="clipPath4021">
      <path
         d="m 39.118,37.134 28.126,0 0,26.954 -28.126,0 0,-26.954 z"
         id="path4023"
         inkscape:connector-curvature="0" />
    </clipPath>
    <clipPath
       id="clipPath4041-7">
      <path
         d="m 0,0 595.276,0 0,841.89 L 0,841.89 0,0 Z"
         id="path4043-1"
         inkscape:connector-curvature="0" />
    </clipPath>
    <clipPath
       id="clipPath4053-7">
      <path
         d="m 104.072,239.726 39.448,0 0,-11.585 -39.448,0 0,11.585 z"
         id="path4055-7"
         inkscape:connector-curvature="0" />
    </clipPath>
    <clipPath
       id="clipPath4067-7">
      <path
         d="m 104.072,259.95 24.884,0 0,-31.809 -24.884,0 0,31.809 z"
         id="path4069-7"
         inkscape:connector-curvature="0" />
    </clipPath>
    <clipPath
       id="clipPath4081-3">
      <path
         d="m 104.072,263.695 21.122,0 0,-35.554 -21.122,0 0,35.554 z"
         id="path4083-3"
         inkscape:connector-curvature="0" />
    </clipPath>
    <clipPath
       id="clipPath4095-5">
      <path
         d="m 104.072,254.114 34.584,0 0,-25.973 -34.584,0 0,25.973 z"
         id="path4097-9"
         inkscape:connector-curvature="0" />
    </clipPath>
    <clipPath
       id="clipPath4109-9">
      <path
         d="m 104.072,244.53 13.958,0 0,-16.389 -13.958,0 0,16.389 z"
         id="path4111-8"
         inkscape:connector-curvature="0" />
    </clipPath>
    <inkscape:perspective
       id="perspective2938"
       inkscape:persp3d-origin="0.5 : 0.33333333 : 1"
       inkscape:vp_z="1 : 0.5 : 1"
       inkscape:vp_y="0 : 1000 : 0"
       inkscape:vp_x="0 : 0.5 : 1"
       sodipodi:type="inkscape:persp3d" />
    <inkscape:perspective
       id="perspective2997"
       inkscape:persp3d-origin="0.5 : 0.33333333 : 1"
       inkscape:vp_z="1 : 0.5 : 1"
       inkscape:vp_y="0 : 1000 : 0"
       inkscape:vp_x="0 : 0.5 : 1"
       sodipodi:type="inkscape:persp3d" />
    <inkscape:perspective
       id="perspective3018"
       inkscape:persp3d-origin="0.5 : 0.33333333 : 1"
       inkscape:vp_z="1 : 0.5 : 1"
       inkscape:vp_y="0 : 1000 : 0"
       inkscape:vp_x="0 : 0.5 : 1"
       sodipodi:type="inkscape:persp3d" />
    <inkscape:perspective
       id="perspective3039"
       inkscape:persp3d-origin="0.5 : 0.33333333 : 1"
       inkscape:vp_z="1 : 0.5 : 1"
       inkscape:vp_y="0 : 1000 : 0"
       inkscape:vp_x="0 : 0.5 : 1"
       sodipodi:type="inkscape:persp3d" />
    <inkscape:perspective
       id="perspective3060"
       inkscape:persp3d-origin="0.5 : 0.33333333 : 1"
       inkscape:vp_z="1 : 0.5 : 1"
       inkscape:vp_y="0 : 1000 : 0"
       inkscape:vp_x="0 : 0.5 : 1"
       sodipodi:type="inkscape:persp3d" />
    <inkscape:perspective
       id="perspective3081"
       inkscape:persp3d-origin="0.5 : 0.33333333 : 1"
       inkscape:vp_z="1 : 0.5 : 1"
       inkscape:vp_y="0 : 1000 : 0"
       inkscape:vp_x="0 : 0.5 : 1"
       sodipodi:type="inkscape:persp3d" />
    <inkscape:perspective
       id="perspective3102"
       inkscape:persp3d-origin="0.5 : 0.33333333 : 1"
       inkscape:vp_z="1 : 0.5 : 1"
       inkscape:vp_y="0 : 1000 : 0"
       inkscape:vp_x="0 : 0.5 : 1"
       sodipodi:type="inkscape:persp3d" />
    <inkscape:perspective
       id="perspective3123"
       inkscape:persp3d-origin="0.5 : 0.33333333 : 1"
       inkscape:vp_z="1 : 0.5 : 1"
       inkscape:vp_y="0 : 1000 : 0"
       inkscape:vp_x="0 : 0.5 : 1"
       sodipodi:type="inkscape:persp3d" />
    <inkscape:perspective
       id="perspective3144"
       inkscape:persp3d-origin="0.5 : 0.33333333 : 1"
       inkscape:vp_z="1 : 0.5 : 1"
       inkscape:vp_y="0 : 1000 : 0"
       inkscape:vp_x="0 : 0.5 : 1"
       sodipodi:type="inkscape:persp3d" />
    <inkscape:perspective
       id="perspective3165"
       inkscape:persp3d-origin="0.5 : 0.33333333 : 1"
       inkscape:vp_z="1 : 0.5 : 1"
       inkscape:vp_y="0 : 1000 : 0"
       inkscape:vp_x="0 : 0.5 : 1"
       sodipodi:type="inkscape:persp3d" />
    <inkscape:perspective
       id="perspective3186"
       inkscape:persp3d-origin="0.5 : 0.33333333 : 1"
       inkscape:vp_z="1 : 0.5 : 1"
       inkscape:vp_y="0 : 1000 : 0"
       inkscape:vp_x="0 : 0.5 : 1"
       sodipodi:type="inkscape:persp3d" />
    <inkscape:perspective
       id="perspective3207"
       inkscape:persp3d-origin="0.5 : 0.33333333 : 1"
       inkscape:vp_z="1 : 0.5 : 1"
       inkscape:vp_y="0 : 1000 : 0"
       inkscape:vp_x="0 : 0.5 : 1"
       sodipodi:type="inkscape:persp3d" />
    <inkscape:perspective
       id="perspective3228"
       inkscape:persp3d-origin="0.5 : 0.33333333 : 1"
       inkscape:vp_z="1 : 0.5 : 1"
       inkscape:vp_y="0 : 1000 : 0"
       inkscape:vp_x="0 : 0.5 : 1"
       sodipodi:type="inkscape:persp3d" />
    <inkscape:perspective
       id="perspective3249"
       inkscape:persp3d-origin="0.5 : 0.33333333 : 1"
       inkscape:vp_z="1 : 0.5 : 1"
       inkscape:vp_y="0 : 1000 : 0"
       inkscape:vp_x="0 : 0.5 : 1"
       sodipodi:type="inkscape:persp3d" />
    <inkscape:perspective
       id="perspective2840"
       inkscape:persp3d-origin="0.5 : 0.33333333 : 1"
       inkscape:vp_z="1 : 0.5 : 1"
       inkscape:vp_y="0 : 1000 : 0"
       inkscape:vp_x="0 : 0.5 : 1"
       sodipodi:type="inkscape:persp3d" />
    <filter
       style="color-interpolation-filters:sRGB"
       inkscape:label="Greyscale"
       id="filter4205">
      <feColorMatrix
         values="0.21 0.72 0.072 0 0 0.21 0.72 0.072 0 0 0.21 0.72 0.072 0 0 0 0 0 1 0 "
         id="feColorMatrix4207" />
    </filter>
    <filter
       style="color-interpolation-filters:sRGB"
       inkscape:label="Greyscale"
       id="filter4209">
      <feColorMatrix
         values="0.21 0.72 0.072 0 0 0.21 0.72 0.072 0 0 0.21 0.72 0.072 0 0 0 0 0 1 0 "
         id="feColorMatrix4211" />
    </filter>
    <filter
       style="color-interpolation-filters:sRGB"
       inkscape:label="Greyscale"
       id="filter4213">
      <feColorMatrix
         values="0.21 0.72 0.072 0 0 0.21 0.72 0.072 0 0 0.21 0.72 0.072 0 0 0 0 0 1 0 "
         id="feColorMatrix4215" />
    </filter>
    <filter
       style="color-interpolation-filters:sRGB"
       inkscape:label="Greyscale"
       id="filter4217">
      <feColorMatrix
         values="0.21 0.72 0.072 0 0 0.21 0.72 0.072 0 0 0.21 0.72 0.072 0 0 0 0 0 1 0 "
         id="feColorMatrix4219" />
    </filter>
    <filter
       style="color-interpolation-filters:sRGB"
       inkscape:label="Greyscale"
       id="filter4221">
      <feColorMatrix
         values="0.21 0.72 0.072 0 0 0.21 0.72 0.072 0 0 0.21 0.72 0.072 0 0 0 0 0 1 0 "
         id="feColorMatrix4223" />
    </filter>
    <filter
       style="color-interpolation-filters:sRGB"
       inkscape:label="Greyscale"
       id="filter4225">
      <feColorMatrix
         values="0.21 0.72 0.072 0 0 0.21 0.72 0.072 0 0 0.21 0.72 0.072 0 0 0 0 0 1 0 "
         id="feColorMatrix4227" />
    </filter>
    <filter
       style="color-interpolation-filters:sRGB"
       inkscape:label="Greyscale"
       id="filter4229">
      <feColorMatrix
         values="0.21 0.72 0.072 0 0 0.21 0.72 0.072 0 0 0.21 0.72 0.072 0 0 0 0 0 1 0 "
         id="feColorMatrix4231" />
    </filter>
    <filter
       style="color-interpolation-filters:sRGB"
       inkscape:label="Greyscale"
       id="filter4233">
      <feColorMatrix
         values="0.21 0.72 0.072 0 0 0.21 0.72 0.072 0 0 0.21 0.72 0.072 0 0 0 0 0 1 0 "
         id="feColorMatrix4235" />
    </filter>
    <filter
       style="color-interpolation-filters:sRGB"
       inkscape:label="Greyscale"
       id="filter4237">
      <feColorMatrix
         values="0.21 0.72 0.072 0 0 0.21 0.72 0.072 0 0 0.21 0.72 0.072 0 0 0 0 0 1 0 "
         id="feColorMatrix4239" />
    </filter>
    <filter
       style="color-interpolation-filters:sRGB"
       inkscape:label="Greyscale"
       id="filter4241">
      <feColorMatrix
         values="0.21 0.72 0.072 0 0 0.21 0.72 0.072 0 0 0.21 0.72 0.072 0 0 0 0 0 1 0 "
         id="feColorMatrix4243" />
    </filter>
    <filter
       style="color-interpolation-filters:sRGB"
       inkscape:label="Greyscale"
       id="filter4245">
      <feColorMatrix
         values="0.21 0.72 0.072 0 0 0.21 0.72 0.072 0 0 0.21 0.72 0.072 0 0 0 0 0 1 0 "
         id="feColorMatrix4247" />
    </filter>
    <filter
       style="color-interpolation-filters:sRGB"
       inkscape:label="Greyscale"
       id="filter4249">
      <feColorMatrix
         values="0.21 0.72 0.072 0 0 0.21 0.72 0.072 0 0 0.21 0.72 0.072 0 0 0 0 0 1 0 "
         id="feColorMatrix4251" />
    </filter>
    <filter
       style="color-interpolation-filters:sRGB"
       inkscape:label="Greyscale"
       id="filter4253">
      <feColorMatrix
         values="0.21 0.72 0.072 0 0 0.21 0.72 0.072 0 0 0.21 0.72 0.072 0 0 0 0 0 1 0 "
         id="feColorMatrix4255" />
    </filter>
  </defs>
  <g
     transform="translate(-128.49892,12.67039)"
     id="g2925"
     style="fill:#819caa;fill-opacity:1">
    <path
       id="path2850"
       style="fill:#819caa;fill-opacity:1;fill-rule:nonzero;stroke:none"
       d="m 805.25948,177.45637 c -31.69014,5.6338 -48.59155,29.57747 -48.59155,71.12676 0,42.25352 22.53522,70.42254 55.63381,70.42254 16.19718,0 30.28169,-5.63381 59.85915,-20.42254 0,34.50704 0,34.50704 0,34.50704 -35.91549,16.90141 -57.04225,21.12676 -85.21127,21.12676 -31.69014,0 -54.22535,-7.74647 -71.83098,-26.76056 -18.30986,-18.30986 -28.16902,-42.25352 -28.16902,-69.71831 0,-59.85915 45.07043,-101.40845 110.56338,-101.40845 42.95775,0 73.23944,20.42254 73.23944,49.29578 0,19.01408 -14.08451,32.39436 -34.50704,32.39436 -10.56338,0 -19.01409,-3.52113 -30.98592,-9.85915"
       inkscape:connector-curvature="0" />
    <path
       id="path2852"
       style="fill:#819caa;fill-opacity:1;fill-rule:nonzero;stroke:none"
       d="m 646.80878,257.73806 c 28.87324,-35.91549 39.43662,-50.70422 39.43662,-68.30986 0,-17.60563 -14.08451,-33.09859 -33.80282,-33.09859 -11.2676,0 -21.83098,6.33803 -26.76056,11.97183 0,73.94366 0,73.94366 0,73.94366 -47.1831,63.38029 -47.1831,63.38029 -47.1831,63.38029 0,-143.66198 0,-143.66198 0,-143.66198 -45.07042,0 -45.07042,0 -45.07042,0 -74.64789,123.23944 -74.64789,123.23944 -74.64789,123.23944 0,-123.23944 0,-123.23944 0,-123.23944 -25.35211,0 -25.35211,0 -25.35211,0 -68.30986,15.49296 -68.30986,15.49296 -68.30986,15.49296 0,17.60563 0,17.60563 0,17.60563 37.32394,3.52113 37.32394,3.52113 37.32394,3.52113 0,152.8169 0,152.8169 0,152.8169 47.1831,0 47.1831,0 47.1831,0 71.83099,-118.30986 71.83099,-118.30986 71.83099,-118.30986 0,118.30986 0,118.30986 0,118.30986 52.8169,0 52.8169,0 52.8169,0"
       inkscape:connector-curvature="0" />
    <path
       id="path2862"
       style="fill:#819caa;fill-opacity:1;fill-rule:nonzero;stroke:none"
       d="m 222.16089,327.45637 c 5.6338,0 7.04226,0 10.56338,0 38.02817,0 59.15493,-23.23944 59.15493,-69.71831 0,-38.73239 -16.90141,-59.85915 -48.59155,-59.85915 -4.22535,0 -10.56338,0.70422 -21.12676,2.8169 l 0,126.76056 z m 0,83.09859 c 30.98592,7.04226 30.98592,7.04226 30.98592,7.04226 0,17.60563 0,17.60563 0,17.60563 -121.83099,0 -121.83099,0 -121.83099,0 0,-17.60563 0,-17.60563 0,-17.60563 28.16902,-7.04226 28.16902,-7.04226 28.16902,-7.04226 0,-212.67605 0,-212.67605 0,-212.67605 -30.98592,0 -30.98592,0 -30.98592,0 0,-17.60564 0,-17.60564 0,-17.60564 73.94366,-22.53521 73.94366,-22.53521 73.94366,-22.53521 19.71831,0 19.71831,0 19.71831,0 0,25.35211 0,25.35211 0,25.35211 34.50704,-21.12676 46.47888,-24.64788 64.78873,-24.64788 40.84507,0 71.83099,38.02817 71.83099,90.84507 0,60.56338 -41.5493,102.11267 -104.92958,102.11267 -7.04225,0 -19.01408,-0.70422 -31.69014,-1.40845"
       inkscape:connector-curvature="0" />
  </g>
</svg>
